/* XPM */
static char *_ed8f3f90a964349d9c9cc0717bca5157bB64acK4WvoMImu[] = {
/* columns rows colors chars-per-pixel */
"40 40 256 2 ",
"   c #170105",
".  c #0B0005",
"X  c #230100",
"o  c #2B0101",
"O  c #290A00",
"+  c #340000",
"@  c #3C0000",
"#  c #36010C",
"$  c #350312",
"%  c #430000",
"&  c #4D0000",
"*  c #470607",
"=  c #540001",
"-  c #5D0100",
";  c #580407",
":  c #560917",
">  c #571213",
",  c #630000",
"<  c #6C0000",
"1  c #680A03",
"2  c #730000",
"3  c #7B0101",
"4  c #7B0806",
"5  c #691702",
"6  c #761701",
"7  c #6C0219",
"8  c #701818",
"9  c #72112A",
"0  c #7C340E",
"q  c #840100",
"w  c #8B0100",
"e  c #880609",
"r  c #920100",
"t  c #9C0100",
"y  c #930B02",
"u  c #9A0D00",
"i  c #98060B",
"p  c #851803",
"a  c #941500",
"s  c #991801",
"d  c #890514",
"f  c #94031C",
"g  c #991711",
"h  c #A40400",
"j  c #AA0400",
"k  c #A30C00",
"l  c #A80809",
"z  c #B40300",
"x  c #BA0200",
"c  c #B60A05",
"v  c #AC1301",
"b  c #A61703",
"n  c #BC1400",
"m  c #BB1C00",
"M  c #B41603",
"N  c #B91A17",
"B  c #A30F18",
"V  c #882500",
"C  c #942601",
"Z  c #9D3B01",
"A  c #99360F",
"S  c #A62703",
"D  c #B72805",
"F  c #A73701",
"G  c #BB3B00",
"H  c #B73601",
"J  c #B62617",
"K  c #B33816",
"L  c #8F052C",
"P  c #B21222",
"I  c #872727",
"U  c #AB3221",
"Y  c #C30C01",
"T  c #C70301",
"R  c #D50602",
"E  c #C41C00",
"W  c #C81703",
"Q  c #D51900",
"!  c #D70515",
"~  c #CB0018",
"^  c #E41208",
"/  c #C52400",
"(  c #C42B00",
")  c #CC2901",
"_  c #D82703",
"`  c #C43500",
"'  c #CC3300",
"]  c #C33D01",
"[  c #CC3B00",
"{  c #C3340C",
"}  c #DB3300",
"|  c #D73A03",
" . c #D72714",
".. c #C63613",
"X. c #D73C14",
"o. c #CC2512",
"O. c #E92504",
"+. c #E63B04",
"@. c #E03C11",
"#. c #F52B0B",
"$. c #C63528",
"%. c #C50824",
"&. c #AA4801",
"*. c #B44500",
"=. c #BC4400",
"-. c #B94B00",
";. c #B95702",
":. c #B45214",
">. c #BD6500",
",. c #B67A00",
"<. c #C44301",
"1. c #CD4B00",
"2. c #C94602",
"3. c #D34300",
"4. c #DA4401",
"5. c #D44D01",
"6. c #D84707",
"7. c #CE5C00",
"8. c #C75603",
"9. c #D45300",
"0. c #DC5501",
"q. c #D45C00",
"w. c #DD5B01",
"e. c #DA5A0B",
"r. c #C95616",
"t. c #D05217",
"y. c #E64901",
"u. c #E95803",
"i. c #F45B09",
"p. c #E74A16",
"a. c #F54919",
"s. c #E65913",
"d. c #F55A15",
"f. c #F24206",
"g. c #CB6400",
"h. c #C76902",
"j. c #D36300",
"k. c #D46B00",
"l. c #DC6803",
"z. c #C57300",
"x. c #CA7400",
"c. c #C97E00",
"v. c #DE7500",
"b. c #D37B00",
"n. c #D57401",
"m. c #DA6617",
"M. c #DA7716",
"N. c #C76A19",
"B. c #E36502",
"V. c #E46B01",
"C. c #ED6D01",
"Z. c #E96608",
"A. c #F46B01",
"S. c #F66707",
"D. c #E37C00",
"F. c #E87305",
"G. c #FE7C0B",
"H. c #F77709",
"J. c #E86A14",
"K. c #F96815",
"L. c #EB7716",
"P. c #F77818",
"I. c #D45527",
"U. c #DD502E",
"Y. c #F74F2A",
"T. c #CE7326",
"R. c #FF7C23",
"E. c #FF7528",
"W. c #FE7A34",
"Q. c #EF6E2E",
"!. c #DB5D44",
"~. c #E96340",
"^. c #D58201",
"/. c #DA8803",
"(. c #D28B05",
"). c #EC8B00",
"_. c #E98905",
"`. c #F88507",
"'. c #EC9500",
"]. c #E39E01",
"[. c #EC9B01",
"{. c #E69505",
"}. c #F39B00",
"|. c #FB9708",
" X c #E98719",
".X c #FD8717",
"XX c #FE9C1A",
"oX c #F99716",
"OX c #D7B600",
"+X c #D8A605",
"@X c #ECA802",
"#X c #F5A302",
"$X c #FDA403",
"%X c #F3AC02",
"&X c #FEAB01",
"*X c #FFAB0C",
"=X c #FCA50B",
"-X c #EBB702",
";X c #FFB403",
":X c #F3BD00",
">X c #FEBB01",
",X c #FFB20D",
"<X c #FFBC0B",
"1X c #F5B604",
"2X c #FEAA13",
"3X c #FFA41A",
"4X c #FEAB1C",
"5X c #FAA514",
"6X c #FFB314",
"7X c #FFBD13",
"8X c #FFB41B",
"9X c #FDBA1B",
"0X c #EAAB16",
"qX c #D4912D",
"wX c #FE8627",
"eX c #FF932A",
"rX c #FF9925",
"tX c #FC8838",
"yX c #FE9834",
"uX c #E58826",
"iX c #FFA425",
"pX c #FEA32A",
"aX c #FFAD2C",
"sX c #FAAC23",
"dX c #FEB426",
"fX c #FDBA23",
"gX c #FFB52A",
"hX c #FFBC2D",
"jX c #FFAC33",
"kX c #FFA538",
"lX c #FFB432",
"zX c #FFB838",
"xX c #ECB630",
"cX c #FDC502",
"vX c #FDCC01",
"bX c #FFC40B",
"nX c #FFCB0C",
"mX c #F5C300",
"MX c #FED207",
"NX c #FFC314",
"BX c #FFC31A",
"VX c #FFCA1B",
"CX c #FFCE15",
"ZX c #FFD415",
"AX c #E9C800",
"SX c #F9E00F",
"DX c #FFC323",
"FX c #FFC829",
"GX c #FFC434",
"HX c #F2D320",
"JX c #FFAC43",
"KX c #FFA74A",
"LX c #FFB74A",
"PX c #FFB956",
"IX c #FF9C68",
"UX c #FF9E5F",
/* pixels */
"`.A.] J 3 s 1.G.wX/ n @.3.B.|.|.' j v W.P.1.< % 2 G A.9.- I D r t g , - a D y..X",
"H.4.u w < S F.yXtX) m X.3.B.|.).3.v y W.P.-.- & 2 { u.] = I U w w l 3 3 J ) f.K.",
"Y.M 3 < < F J.eXR.( m 6.w.`.2X|.e.H 3 Q.uX&.& , w  .+.M - 9 I < r l q 4 N  .a.Y.",
"N r q d C r..XoXH.H D 0.`.sXDX2XwXe.2 I.T.Z & w x #.#.x 2 7 ; & 3 g , ; d l D E ",
"2 3 s K h._.*X=X`.<.G C.XX6X<X#XpXE.q ..r.p , v ! ^ ^ T i 3 < = & > $ $ = , 2 < ",
"H =.M. X#X%XcX;X`.<.<.G.*X&X%X%X8XeXt z S 2 w o.! x z j M v D p @ O .   o & V C ",
"aXiXGX9XnXvXZX7XF.=.2..X|.).{.BX-XiXm h i < D U.N q 3 3 H s.E.H & X . . o ; N.tX",
"'./.].(.-X:XMX*XL.2.6.wX.Xk.^.FXOXfX[ h i < I.~.J < = = *.wXkX3., @   $ % 1 m.KX",
"p.p.y.5.n.#X;X2XC.q.j.aX[ [ V.oX5.s.!.< & 6 ;.M.-., P q ] pXdXz.% : = = , V iX^.",
"o. ._ ( g.'.,X2XP.7.h.zX` v 1.eX1.J.Q.< = V M.yX8.- $.w G aX*Xx.% : ; = < F jXh.",
"~ ! R E 7.|.9X8X X8.z.zX` w G kX2.Z.Q.3 - C  XjX7., $.q *.hX=X(.* : ; = < H JX-.",
"! ! R W j.5XBX9XoXx.c.gX] w <.JX1.P.W.y 2 S L.eX8., a 2 -.zXdXuX5 * & , 2 H JX=.",
"R R R _ v.,XbX;XsXoX].6X9.b l.lXB.R.tXS u ] P.wXt.3 - < ;.jXLXm.6 = , e u ` kX7.",
") } +.u.).;X>X$XzXlX;X*XB.1.).4Xv.L.wXG H 6.P.wXt.S - p g.XXJX8.4 2 q J ..6.jXj.",
"2.V.G.`.#X%X#X).eXyX'.).Z.w.|.*Xb._.rXV.u.u.A.H.m.r.F ;.v.|.eX5.k j j o.p.u.dXh.",
">._.aXdX@X]./.j.9.m.g.j.u.0.|.6X^.'.FX|.`.A.Z.B.B.J.tXwX).|.G.i.} @.Q _ a.S.fX>.",
"g.2X`.G.u.[ ( D N w c X.C./.AXSXOX-X<XfXFX5Xq.2.h.<X6X3X|.k.j.L.oXb.c.(.(.2XiXj.",
"z.hXC.y.} W k u 3 = < a D.&XCXmX:X>X*X3X4XXX1.H n.6X`..XXX*.H m.iX6XVXbX%X*XXXk.",
",.LX9.n c l q 2 % & - 5 ^.7XFX7XbXNX'._./.kX] k l.rX[ K.yXs u 1.dXNXZXnXnXNX|.k.",
"z.PX3.t r 3 & = % 9 8 6 {.NXVXDXNX9Xv.k.n.LX` r 9.wXh | UXy r ] 4X>X-X-XMXbX'.n.",
"v.PX4.r < % X + 7 L r y =XZXZXCXDX4Xk.*.;.LX' r 5.W.t E IXb k <.4XcXcXmXmX@X/.b.",
"v.jX| u 1 +   * f P x v $XvXvXZXVX2Xv.F ;.kX[ h s.W.h E IXH D 9.fX>X:XvXvX1X{.x.",
"/.sX| m e ; @ ; f %.Y M }.cXbX<X%X#X3X8.x.aX4.( P.P.M / PX1.] H.dX'.@XcXnXNX4X^.",
"-XhXy. .B 7 & - f l r w ].ZXVX'./.[.GX).'.hXu.4.wXB.M ) PXq.1.XX4X'.;XCX-X%XhXjX",
"FX[.;.*.e < i < # @ , &.OXMX6XH.u.q.0XHXAX-X(.z.aXL.W _ eX{.z.&X&X].cX{.C.H.2XZX",
"3X`.8.G r w N y & 5 F k.:XZX4XA.| [ _.BXcXvX;X}.gXF.E } pXfX@XVX$X'.NXb.*.=.D.*X",
"H.H.u.3.j j Y.{ = A m.|.cXNXrXy.M v B.|.;XnXbX6X3Xl.E | oXDX<X<X|.D.lX>.1 1 G A.",
"u.S.Z.d.Y Y E.e.= :..X*X>X<XeXH q q | H.).,X6X2XD.] Y _ V.XX#X).C.w.JX&.@ & u } ",
"[ 4.J.E.Q Y P.k.& N.5X;XmX<XeXC & = D s.b.0X5XoXq.( R Q +.K..XC.u.0.KX&.@ & q n ",
"/ ` J.tXQ x J.>.- uX9XbXcX<XpXV o + b p.M.sXsX XJ.+.^ ^ _ y.i.u.B.l.KXZ ; 7 < u ",
"W ) Z.E.R T L.;.6 yXDXCXcX;XpXV X o z #.F.dX0X^.P.d.O.O.} 4.0.w.V.D.zXC 4 L = p ",
"Q } i.d.T R wX;.p KXGXCX>X$XeXV O o x #.C.2X].z.V.u.+.+.d.J.l.v.D.).lXp e L & 0 ",
"q y X.Y.T R a.+.6 xXnX;XfXoXrXF O o 2 N X.R.,Xb.7.e.U.U.D.'.}.}.'.@XqX5 y B - - ",
"& 3 J o.w t @.k Z lX9X&X9X[.iX&.o X = 4 a r.8X;X|.v.8.k.&XcX<X7X>X,XqX- w l , , ",
"@ - d f - - V , g.iXiXXX0X+XgX&.& # # * & V .X2XBX#X^./.cX>X#X6XVXhXqX, t W w 2 ",
"5 = = 7 * + & <  XH.K.P.{.].GX&.4 : o $ % 2 6.A.|.;X>X<X$Xg.-.M.XXpXT., z  .M k ",
"K 4 & * @ % < a kXl.+.f.i.H.hX8.r 3 & > 1 2 M } 0.|.DXgXJ.s w K e.M.:., x O.} | ",
"K.] p & % 4 M ' LXq./ Q +.u.iXV.j t q K S 3 r N ( K.rXwXD 3 2 q ..I.A , x Q d.E.",
"3XV.2.w < g 4.i.KX9./ ) [ 5..XG.( z z a.s.a 2 q D p.R.i.w 3 3 , D $.g < x Q i.eX",
"nXv.y.n q b 5.`.yX3.[ 3.r.;.G.G.| j x i.wX=.1 - s 6.R.u.q p A 2 k N e 2 x W 0..X"
};
