/* XPM */
static char *e5c567dd1f924327b6fbbbe15d75af51HoT7FL0ZSAkJZ6JF[] = {
/* columns rows colors chars-per-pixel */
"40 40 251 2 ",
"   c #35257A",
".  c #683457",
"X  c #7A335B",
"o  c #793558",
"O  c #712D54",
"+  c #5A1C79",
"@  c #4D176D",
"#  c #651F78",
"$  c #49247B",
"%  c #552876",
"&  c #572C6C",
"*  c #682B68",
"=  c #7A2D68",
"-  c #6B356A",
";  c #74336D",
":  c #7C346C",
">  c #793867",
",  c #672778",
"<  c #762B75",
"1  c #69357A",
"2  c #733373",
"3  c #7B3A74",
"4  c #78357A",
"5  c #794569",
"6  c #7C417D",
"7  c #664268",
"8  c #9A3A39",
"9  c #9F3C29",
"0  c #A33939",
"q  c #B03C01",
"w  c #A9471D",
"e  c #BB4A1C",
"r  c #BC581A",
"t  c #B95607",
"y  c #9B463C",
"u  c #95432D",
"i  c #AA462A",
"p  c #B74C28",
"a  c #AC532C",
"s  c #BB542C",
"d  c #BC5C2C",
"f  c #B75427",
"g  c #AB4A34",
"h  c #A3453B",
"j  c #AB4B3D",
"k  c #A54939",
"l  c #B54C3C",
"z  c #B94B37",
"x  c #AA5439",
"c  c #BB5533",
"v  c #B55737",
"b  c #BD6233",
"n  c #CB5402",
"m  c #C8590B",
"M  c #D75B09",
"N  c #CA5C1B",
"B  c #C6571A",
"V  c #DA5E1A",
"C  c #D55A19",
"Z  c #C94B08",
"A  c #E45F06",
"S  c #E05E12",
"D  c #CB650C",
"F  c #C86805",
"G  c #DD650B",
"H  c #D86806",
"J  c #CC7702",
"K  c #DD7303",
"L  c #DB7606",
"P  c #CA6517",
"I  c #D36413",
"U  c #DB6314",
"Y  c #D46419",
"T  c #DD6C1C",
"R  c #D86818",
"E  c #D9721A",
"W  c #E46303",
"Q  c #E36C02",
"!  c #E36B0B",
"~  c #E8670A",
"^  c #F46A05",
"/  c #E57401",
"(  c #EB7401",
")  c #E67902",
"_  c #EC7B01",
"`  c #EB7B0C",
"'  c #E9760D",
"]  c #F67A04",
"[  c #E46413",
"{  c #E66A16",
"}  c #E4711A",
"|  c #E97416",
" . c #F47B15",
".. c #F7631A",
"X. c #C54A27",
"o. c #C55B24",
"O. c #CC5B24",
"+. c #C3542B",
"@. c #C65728",
"#. c #D45925",
"$. c #C35533",
"%. c #C85936",
"&. c #D3593B",
"*. c #C76428",
"=. c #D76428",
"-. c #DB7325",
";. c #D86737",
":. c #C96636",
">. c #E36627",
",. c #EC7226",
"<. c #89364C",
"1. c #983948",
"2. c #8A3D55",
"3. c #833A5B",
"4. c #8B3C5C",
"5. c #863757",
"6. c #933D52",
"7. c #973A55",
"8. c #A43E49",
"9. c #843564",
"0. c #893D66",
"q. c #823A68",
"w. c #963866",
"e. c #843D75",
"r. c #8E3570",
"t. c #954344",
"y. c #9C4344",
"u. c #9C444B",
"i. c #9E4B4B",
"p. c #974848",
"a. c #8B425C",
"s. c #864357",
"d. c #954254",
"f. c #9D4252",
"g. c #93435C",
"h. c #9A4958",
"j. c #974F52",
"k. c #AB4543",
"l. c #A24A44",
"z. c #A54C4A",
"x. c #A84848",
"c. c #B44C44",
"v. c #B44748",
"b. c #AA5347",
"n. c #B85546",
"m. c #A14654",
"M. c #A84A57",
"N. c #B74B57",
"B. c #A75655",
"V. c #B25A52",
"C. c #854469",
"Z. c #974662",
"A. c #884574",
"S. c #904973",
"D. c #A64966",
"F. c #B54B6B",
"G. c #AD605A",
"H. c #C35342",
"J. c #C75943",
"K. c #C55551",
"L. c #D36841",
"P. c #DD8902",
"I. c #D89802",
"U. c #CA8900",
"Y. c #E48401",
"T. c #E48C01",
"R. c #EB8804",
"E. c #F38301",
"W. c #F48D03",
"Q. c #FA880B",
"!. c #E29200",
"~. c #EB9602",
"^. c #F69607",
"/. c #F68612",
"(. c #F49613",
"). c #EB8016",
"_. c #DBAD07",
"`. c #E9A803",
"'. c #F6A707",
"]. c #EDBD04",
"[. c #E9B700",
"{. c #F9B709",
"}. c #FBAB16",
"|. c #FDB71A",
" X c #FDAC28",
".X c #ECC705",
"XX c #F8C403",
"oX c #FCC917",
"OX c #F1D20D",
"+X c #FAEE12",
"@X c #FECF36",
"#X c #FCCE24",
"$X c #FFF132",
"%X c #FFE85A",
"&X c #341598",
"*X c #381393",
"=X c #3B259B",
"-X c #3E258B",
";X c #1613AD",
":X c #0102BC",
">X c #0B07B9",
",X c #170BB9",
"<X c #1714B8",
"1X c #0C00AD",
"2X c #270DAB",
"3X c #2719A8",
"4X c #3A13A4",
"5X c #3619A8",
"6X c #240ABA",
"7X c #3715B6",
"8X c #3210B3",
"9X c #3223AA",
"0X c #481989",
"qX c #511D8C",
"wX c #54178C",
"eX c #441C97",
"rX c #471999",
"tX c #541A96",
"yX c #520F80",
"uX c #621D88",
"iX c #4B2289",
"pX c #582687",
"aX c #5A3389",
"sX c #492299",
"dX c #582597",
"fX c #5D3595",
"gX c #632B8A",
"hX c #662786",
"jX c #752E86",
"kX c #683485",
"lX c #713287",
"zX c #682996",
"xX c #653593",
"cX c #763293",
"vX c #441CA6",
"bX c #4519BA",
"nX c #4A21A2",
"mX c #5828A5",
"MX c #0B02CA",
"NX c #0706C8",
"BX c #1906C9",
"VX c #0906D6",
"CX c #1607D4",
"ZX c #1715C8",
"AX c #2809C7",
"SX c #2517C6",
"DX c #2C10CF",
"FX c #0F06E4",
"GX c #4D13CA",
"HX c #803789",
"JX c #AF5686",
/* pixels */
"OX.X].`.`.'.}.|.{.].OX+X+X+XOX.X~.R.H r a p.3.: 2 2 2 : 3.<.u.V.x f J R.(.(.}.|.",
"OX.X[.`.!.T.~.^.}.`.`.].oXoX.X`.T.) H r a p.3.= 2 4 3 : X <.d.B.y w F Y.(.^.'.|.",
"XXXX`.!.L K / ) R.Y.P.T.~.^.~.R.` ' R o.x i.4.q.; 3 e.; X 5.g.M.8 a R R.W.~.`.{.",
"{.{.'.R.) Q ~ ~ Q Q ) E.^.W.E.( ' T =.s g y.6.0.: e.e.= X 4.g.6.1.c E /.Q.W.'.{.",
"{.}.(./.| { [ [ G Q _ Q.Q.Q.E.( T O.+.i 9 8 6.4.0.0.9.O o Z.g.<.0 $.} Q.E.W.'.{.",
"'.'.(. .} U C B N N P E E E R =.%.%.l j h y.u.h.Z.h.g.2.g.D.M.l.J.=.` _ ( ) Y.!.",
"`.~.T.' T O.p i k h y p.y.y.u.x.c.c.c.b.z.z.z.B.B.i.f.M.M.M.M.n.;.} _ ( Q / Y.P.",
"!.!.Y.L =.%.l 8.<.4.0.e.3 < < = <.8 l.z.z.z.i.i.t.y y.l.k.8 k.H.=.K / / ( Q. X X",
"^ ^ [ N c l.4.2 xXiX0XdXdXpXpXhXcXlX* - > 3.6.h d *.O.$.c.k.x v n.J.*.U H Q ) ` ",
"^ ~ U o.g t.. % iX&X&X5X9X5X=XsX0X+ * 5 C.C.g.m.a f o.+.l k.l.l.h g e M W ( / K ",
" .| T *.x s.* iX&X2X,XSXZX,X,X6X8XrX1 5 5 X 9.7.k.s N o.c j u.1.y.i e Y  . .' K ",
"] ] } *.v d.- pX4X6XBXCXVXNXNXCXDXbXaX7 . O = w.N.%.P P d b.h.7.y.g +.>. . .' L ",
"^ ^ ~ Y c u.> gXrX8XBXCXVXVXVXFXCXAXiX& . O r.F.K.&.I I @.b.h.Z.y.g %.>.| ! H D ",
"^ ^ W C $.z.0.lXmXbXAXBXMXNXNXCXMX,X=X% - X w.N.&.=.G I @.l u.d.y.j %.;.T n n I ",
"^ ~ U O.v f.q.kXmX7X6X>X:X:X:X:XMX6X5XaX1 9.7.H.=.~ ~ V %.c.h y y.j %.;.U n m -.",
"{ U N f y <.* pX*X2X1X:X:XNXNX:XMX,X&XiX, 9.M.;.~ W ~ >.&.n.g u y h c =.C n m -.",
"n.b.y p.C.kXsX7XAXBXMXMXMXVXFXFXMX,X7XnXgXq.M.v *.D D N d c.M.m.i f O.C C #.;.;.",
"u.u.t.2.> kXnX7X6XBX,X>X,XZXVXMX,X;X5XnXpX< Z.n.%.N m m r p i i v +.@.C C #.+.p ",
"7.6.6.2.> , dXvX2X2X3X3X3X;X<X>X;X;X5XeXpX< w.N.%.@.N m D P P *.:.:.@.X.@.%.z 9 ",
"x.x.z.m.2.= hXdXrXvX=X=X=X9X3X;X,X,X5XeX, 9.M.J.#.V [ { } T E -.*.c s z H.n.x.t.",
"j n.n.b.y.2.: jXzXzXpXpXiXeX4X8XCXCX8XdX; u.d I Q ( ] ' U N B p p p g k.x.m.g.a.",
"1.l.b.z.p.5.: jXcXzXgXgXpXtXvX7XAXAX4XgXg.v I H Q ^ ^ ~ V X.p i i g k.f.4.X - - ",
"* ; 5 C.> - , hXdXdXgXgXgXdXtXvX7X4X0X; B.:.U M A ^ ^ { #.o.s v l k.m.Z.> & & % ",
"dXdXxXkXaXpXqXrXrXqXpXaXxXfXdXsXsX0X& 3.V.L.V Z ......>.N B r d n.V.D.S.4 % $ $ ",
"    -XmXmXmXwXyX+ * * - 1 1 & $ mX0X+ S.G.a t M | { [ S M M M I N o.s y <.* $ 0X",
"9X5X4XvXdXdXgX4 3 > 3 A.6 lXgXpX@ & > g.y i B Y { [ [ [ ! ! K H o.v j t.o , iXeX",
"DXAX6X8X&XqX1 6 C.C.C.e.4 hXuXwX* s.j.b.x d =.>.C V [ { ' K H D c b.u.2.; pXsX4X",
"VXVXBXSX5XeXpXkX4 3 3 ; , # hX, 9.<.8 9 i r m n ! ! | | T Y N f c.m.g.q.1 pXrX4X",
"NXNXZXSX7X4XrXdXcXcXjX< * ; 3 A.JXF.N.K.L.=.G ' ` /. .,.=.%.l v.x.f.d.0.4 pXeX&X",
"ZX<X;X3X&X*XqXgXjXjX< 9.3.s.j.j.1.1.v.H.p q Z Q _ ` ' T O.z v.v.v.k.u.g.e.kXiX*X",
"SX2X&X0X% * X a.6.6.7.m.z.z.l.k w f %.%.X.e C >.G G G G m B X.$.%.z g l.a.3 pXiX",
"GXbXtXlXC.i.x d p s $.J.J.J.l w t F P B +.&.&.X.#.V [ G H H H } =.@.p h d.q.1 pX",
". . O a.h.m.1.0 l l %.%.$.f f f =.>.>.#.B @.+.a x b.x x a d o.r v b.b.z.m.g.3.o ",
"p.i.B.V.x g v L.+.@.O.N N B N I Q / Q M n B c j y.d.d.6.1.x.c.l v x g g h l.u.p.",
"=.O.B N P P D D F H L K Q !  ./._ _ / H N $.c.M.5.9.9.5.<.m.c.n.c s p e e e f s ",
"^ W W Q ) K J F Y.R.W.E._ ] ] Q./. .} =.J.N.D.r.< < = o p.b.b *.@.O.C U [ ! T } ",
"^ ] Q.Q._ K ~.}.|.}.^.Y./ ) _ _ E.` } =.J.M.w.< hX, , ; Z.B.x f o.N {  .Q.Q./.(.",
"W.W.W.T.Y.!.}.@XoX}.!.J J T.^.^.^.W.Y.E :.b.4.< hXwXwXzXHXe.4.8 %.V ' ] E.R.Y.P.",
"|.`.U.U.I.`.{.oX{.'.I.I.`.oX#XoX'.W.Y.L *.l.3.2 pXqXtXzXjX< 9.1.&.[ Q / L P.I._.",
"#XOX_._._.`.{.oXXXXX].].#X$X$XoX}./.R *.v t.o * % pXaXkX2 X 2.c.#.S Q ) T.`.@X%X"
};
