/* XPM */
static char *ab5dde25afee48e9b5656c5c724d96734UkepawUFh25AHZF[] = {
/* columns rows colors chars-per-pixel */
"40 40 256 2 ",
"   c #74FE73",
".  c #F89A7C",
"X  c #FEA57A",
"o  c #FAB978",
"O  c #87FF7A",
"+  c #9BFE7D",
"@  c #97FC7B",
"#  c #96FC6A",
"$  c #B5FD65",
"%  c #A7FE7A",
"&  c #B8FE78",
"*  c #A1F36D",
"=  c #F6D366",
"-  c #FCC57C",
";  c #FCD878",
":  c #F8C86B",
">  c #CDFF75",
",  c #C2FF7B",
"<  c #C7FF78",
"1  c #DDFE72",
"2  c #DCFF7D",
"3  c #D6FC79",
"4  c #D3FF6D",
"5  c #EBE57C",
"6  c #F9E776",
"7  c #E3FF7B",
"8  c #ECFA78",
"9  c #FAF978",
"0  c #EFF86C",
"q  c #E0D269",
"w  c #BC78DB",
"e  c #BB7AFA",
"r  c #A37FFF",
"t  c #CD7CD7",
"y  c #E87EC8",
"u  c #C77BFA",
"i  c #DA7FF5",
"p  c #EF7BE8",
"a  c #76FF88",
"s  c #78FF95",
"d  c #69FA90",
"f  c #7DFFA6",
"g  c #7DFEB3",
"h  c #7BFFBE",
"j  c #7998F6",
"k  c #7295E6",
"l  c #7AA5FB",
"z  c #7BB6FB",
"x  c #74B0E3",
"c  c #7BFFC8",
"v  c #7CFFDA",
"b  c #5DC2FF",
"n  c #7CC5FB",
"m  c #78D7FF",
"M  c #70D1F1",
"N  c #7CE5E7",
"B  c #7CFAE5",
"V  c #78EAFF",
"C  c #79F9FD",
"Z  c #BA8FBD",
"A  c #FD948C",
"S  c #FD9885",
"D  c #FF8D96",
"F  c #F99C95",
"G  c #FD8D8C",
"H  c #FEA989",
"J  c #F9B788",
"K  c #ECA398",
"L  c #FBA796",
"P  c #FDBB95",
"I  c #EBBC8C",
"U  c #D595B7",
"Y  c #EE8FAA",
"T  c #EC99AC",
"R  c #FA98AA",
"E  c #FA8AB4",
"W  c #E799B6",
"Q  c #FA97B6",
"!  c #F589AF",
"~  c #D1ACB1",
"^  c #FCAAA7",
"/  c #FABAA9",
"(  c #E5A8B7",
")  c #FDA4B3",
"_  c #E2B6B3",
"`  c #EFB3AA",
"'  c #CFA596",
"]  c #84FE84",
"[  c #85FF8C",
"{  c #8CFE8D",
"}  c #8BFD83",
"|  c #94FD85",
" . c #9DFE84",
".. c #94FC8B",
"X. c #9BFC8B",
"o. c #98F589",
"O. c #85FF94",
"+. c #8DFE94",
"@. c #86FE9C",
"#. c #8CFD9C",
"$. c #8BF699",
"%. c #94FD93",
"&. c #9EFE92",
"*. c #93FC9B",
"=. c #96F699",
"-. c #97EE95",
";. c #A2FF84",
":. c #A9FE84",
">. c #A2FC8B",
",. c #ACF888",
"<. c #B4FD82",
"1. c #BBFF85",
"2. c #B3FE8D",
"3. c #BCFE8A",
"4. c #B7F488",
"5. c #ACFE95",
"6. c #ACFE9C",
"7. c #A4F895",
"8. c #B4FE94",
"9. c #B5FD9C",
"0. c #BBFB97",
"q. c #B5EA92",
"w. c #85FFA3",
"e. c #8BFDA3",
"r. c #85FDAB",
"t. c #8AFEAB",
"y. c #8CF6AD",
"u. c #93FDA3",
"i. c #9CFDA2",
"p. c #9EF5A9",
"a. c #83FFB3",
"s. c #8AFEB3",
"d. c #84FFBB",
"f. c #8DFBBC",
"g. c #93FBBB",
"h. c #99F7B7",
"j. c #AAFAA6",
"k. c #B7FCA5",
"l. c #A6EFAE",
"z. c #FFCC84",
"x. c #FECC8B",
"c. c #FCC588",
"v. c #EBDA8C",
"b. c #FED285",
"n. c #FED48B",
"m. c #F9D989",
"M. c #E8C594",
"N. c #FDC897",
"B. c #F9D798",
"V. c #EFD390",
"C. c #C4FE83",
"Z. c #C3FE8B",
"A. c #CCFE8C",
"S. c #CCFD85",
"D. c #D5FC83",
"F. c #D3FF8B",
"G. c #DAFC88",
"H. c #CDFF93",
"J. c #C4FE9B",
"K. c #C7FB96",
"L. c #D4FD92",
"P. c #DBFE93",
"I. c #DCFD9A",
"U. c #D6F799",
"Y. c #D3EB8E",
"T. c #FEE583",
"R. c #FDEB8B",
"E. c #F9E78A",
"W. c #E4FC8E",
"Q. c #EDFD8C",
"!. c #EAF986",
"~. c #F7FA87",
"^. c #E9E59A",
"/. c #F4ED94",
"(. c #FAE798",
"). c #E4FD93",
"_. c #EBFC93",
"`. c #E3FE99",
"'. c #EAF99A",
"]. c #F7F796",
"[. c #EDEF81",
"{. c #FCC9A6",
"}. c #EBC7B5",
"|. c #F8C7B8",
" X c #EBD7A8",
".X c #C7FAA3",
"XX c #D3F4A3",
"oX c #FDE9A9",
"OX c #E9FAA6",
"+X c #F7F6A3",
"@X c #ECEFAD",
"#X c #8D91DA",
"$X c #B290D2",
"%X c #9589E5",
"&X c #9A8AFB",
"*X c #899BFC",
"=X c #969CFC",
"-X c #9094F7",
";X c #AA86FB",
":X c #B889FC",
">X c #A596FD",
",X c #B58DEC",
"<X c #89A7FC",
"1X c #94A5FB",
"2X c #85B6FB",
"3X c #96B9FE",
"4X c #80AFE7",
"5X c #A3ACFD",
"6X c #CF8BC1",
"7X c #D899CB",
"8X c #C989D7",
"9X c #D586D5",
"0X c #D093CF",
"qX c #FD88C9",
"wX c #E78AD3",
"eX c #F989D8",
"rX c #EB93C7",
"tX c #D5A8C7",
"yX c #EBA8C9",
"uX c #C98AEA",
"iX c #D884E5",
"pX c #C786FC",
"aX c #D281FF",
"sX c #CA93E8",
"dX c #E888F9",
"fX c #EB8AE8",
"gX c #E6A6E2",
"hX c #84FEC4",
"jX c #84FDCC",
"kX c #89FCC5",
"lX c #96F9C8",
"zX c #9AECD8",
"xX c #8CFCD4",
"cX c #86FCD7",
"vX c #91F8D6",
"bX c #91EDD0",
"nX c #A6F4CE",
"mX c #89DCE4",
"MX c #86C7FB",
"NX c #93C9FF",
"BX c #87DCFC",
"VX c #90D1EE",
"CX c #A1C7FF",
"ZX c #ACDEFF",
"AX c #89E8E9",
"SX c #8DFCE3",
"DX c #85FEEC",
"FX c #88F7E8",
"GX c #95F9E5",
"HX c #87E9FA",
"JX c #96E8F7",
"KX c #88F7FA",
"LX c #94FAF7",
"PX c #9EE2EF",
"IX c #A6E2FF",
"UX c #A9EEF4",
/* pixels */
"cXFX3X,Xt W  X_.< & & & > 7 Q.~.~.9 9 6 ; M.~ $X#X3XIXUXIXMXl -X:Xu u ;X*Xz N DX",
"C HX3X>X8X(  X'.C.<.<.C.3 !.Q._.H.L._.].oX{.( 0X#X1XNX3X1X%X,XsXtXyXgXsX,X%X3XIX",
"m n *X%XZ _ ^.).Z.0.K.L.W.Q.Q.)..Xk.K.Y./.(.B.}.~ $X$X$X$XtX_ M.5 5 B.` 7Xw :X:X",
"=X>X:X8XT N.R.~.P.U.I.'.Q.~.!.G.C.:.o...%.5.Z.G.v.I K K }.@XL.& Z.C.Y.^.|.yX8Xw ",
"t t y E L b.T.~._.'.'.].~.8 2 S.* | s.jXv c e.,.D.~.].^.XXj.u.a.jXkXp..XOX X~ ' ",
"T R ^ L z.T.8 3 I.I.W.8 8 1 Z.6.w.hXDXKXHXHXAXlXi.&.&.*.s.xXN M b b N lXk.K.Y.^.",
"v.(.(./.).P.J.5.6.8., 4 4 , j.g.xXSXFXAXAXJXLXGXa.s d d d.LXBXz j j z BXbXl..XI.",
"$ < & <.+ { s s f +.% $ $ :.h.bXzXbXg.g.f.f.d.g r.u.&.X.p.lXmX4X%X%Xj MXJXUXl.q.",
"hXjXjXxXxXvXSXGXFXSXxXkXf s a a s w.w.w.w.*.%.X.+ 2.6.i.g.xXB N x j j <X3XCXZXZX",
"mXmXmXmXAXAXAXHXHXFXSXxXhXr.@.+.[ { %.&.6.8.Z.S.G.F.A.J.j.h.kXGXMX<Xl j *X<X3XCX",
"2X2X2Xz n MXBXBXHXKXLXGXvXlXy.*.X.+ :.3.L.).~.9 ~.6 5 _.U.q.p.nXPXNX2Xl k j *X=X",
"<X2X2Xz n BXHXHXKXKXDXSXxXf.y.$.>.:.<.S.).].R.; = : ; R.'.U.9.l.GXJXBXn l l *X<X",
"MXNXBXHXHXKXDXDXDXDXcXjXhXs.w.O.X.;.2.A._.].E.b.o o - V./.OXJ.7.g.xXFXHXm n MXNX",
"HXHXFXSXxXkXhXd.d.d.a.a.s.r.w.O...>.2.H._.].E.x.c.c.J I v.+X`.4.=.t.kXcXDXKXHXJX",
"cXjXhXs.e.*.*.*.i.u.u.e.e.e.w.#.X.2.K.P._.R.n.x.N.P J J V.R.!.G.<.&.u.s.jXjXxXvX",
"d.a.t.e.%.>.5.9.9.6.7.=.u.e.w.#.5.K.L.).Q.[.; - J H J N.n.; 6 ~.D.1.X.@.r.d.kXlX",
"a   ] 8.P.Q.~.9 8 7 , % @ O O @ C.2 0 6 c.H R Q Q ^ o : = ; E.(._.F.1.;.} [ #.t.",
"%.o.4.'.(.N.N.P I M.V./._.W.P.`./.B.M.I F ! qXeXrXY K J o - c.B./.).L.2...[ @.t.",
"#.o.Y.oX{.) rX9X9XrX^ P n.m.(.oX|.) Y W 9Xi i dXi eXQ R L H L J n.E.'.J.>.+.@.t.",
"d O.J.@X}.7X:X;X;X:XU F J - n.{.R E y iXaXpXpXaXdXfXqX! D A A H o z./.I.8.%.#.t.",
"d s J.@X}.0X;X&X&X;X6XK J ; v.B.L ! 6XuXpX:XpXpXiXrXE D A S S X o z./.I.8.&.*.u.",
"+.X.U.oX` U 8XpX,X8XyX{.B.(.].+XB.` U 8XuXuXsX7X( ^ / N.N.N.x.z.b.E.].I.2.X.%.*.",
">.,.U.oX{.K T W ( _  X@XI.P.A.F.].V._ 7X9XwXW ` B.E./._.'.`.).)./.].).H.<.;.X.7.",
"+ o.J.OX XM.I I B.@X.X9.| O   # !.E./ yXeXqXR P R.8 > & %  .;.3.P.).A.1.% + >.7.",
"-.7.<.< 1 7 7 P.9.h.bXFXDXFXDXGXp.K.).5 = = = [.S.8.*.@.w.e.*.o.>.;. .| | { *.u.",
"r.e.&.<.< > S.H.k.nXzXmXM x MXPXh.j..XP.[.[.!.`.0.i.r.g d.d.s.u...| | { [ { #.u.",
"c g O.X.% & 1.8.l.nXPXVXx k <XCXvXt.i.9.H.I.J.9.i.s.h c c jXkXs.$.{ { [ [ O.e.u.",
"h g @...:.<.1.8.-.h.zXmX2X2X3XNXSXg @.*.5.8.>.o.#.a.h c c hXd.s.e.#.O.O.O.O.e.u.",
"@.#.&.2.Z.F.A.Z.5.j.g.cXAXHXHXHXvXd.w.%.X.;. .| +.w.r.a.s.t.u.*.*.*.#.+.[ { %.*.",
"o.,.Z.P.Q.Q.Q.W.I.k.i.r.c v B B jXf.e.+.| @ +  .} { #.*.*.%.X.X.&.&.&.X.| | o.>.",
"<.A.)./.m.n.z.b.(.'.J.7.e.s.d.c hXkXr.@.] O O | } { +.%...|  .:.2.8.2.:.% % ,.4.",
"L.`.].(.c.H X X J B.OX.X7.=.w.a.jXxXhXt.O.[ ] ] ] [ +.%...X.;.2.3.K.Z.1.& & 3.Z.",
"+X(.n.c.H S G A I v.7 > % | y.xXFXKXKXKXDXcXa.O.] O | 6.0.J.A.3 1 1 U..X8.3.& < ",
"(.b.- o X . A F J b.[.2 & o.s.cXLXKXBXVXVXmXbXlXw.*.8.H.G.!.8 ~.7 2 P.L.3 3 1 1 ",
"N.J X . . S A L H z.T.!.3.=.d.cXFXBX2X<X*X2XBXGXy.j.L.!.6 = ; T.Q.W.Q.~.9 9 9 9 ",
") R Y Y Y Y R L H c.T.~.A.7.t.hXcXmX2Xl l MXAXlXj.Y.B.P L A L M.(./.R.T.b.x.{./ ",
"iXiXiXdXdXfXrX^ P n.R.~.F.2.%.#.h.vXHXm V C d.>.F.v.^ qXp p wXyX/ N.N.P ^ Q wXfX",
"%X&X;XpXaXfXrX^ B.T.~.Q.G.Z.<.,.5.p.jXB B xX6.Z.q ' 6Xu u e :XsXrXR R Q wXiXu e ",
"n z *X;Xe 9XW N.R.8 2 F.F.F.G.D.4.,.>.5.9.XX X}.U $X=X<X<X*X&X;XuXiXuX,X;X&X=X5X",
"C V NX>X$X6X` B.~.1 < , A.P.]._.P.F.4 1 9 n.) eXu >XMXV C m 1X;XpXpX:X&X*Xl MXPX"
};
