/* XPM */
static char *_5866ac3e6944c15d301024e67fda3d63vMCCpq3VwxsQocP[] = {
/* columns rows colors chars-per-pixel */
"40 40 188 2 ",
"   c #493F84",
".  c #543F84",
"X  c #3F488B",
"o  c #3E72AC",
"O  c #3F7CB5",
"+  c #474587",
"@  c #4A4185",
"#  c #454A86",
"$  c #47458B",
"%  c #4A458B",
"&  c #454B8E",
"*  c #4A4B8D",
"=  c #544586",
"-  c #51468A",
";  c #514D8A",
":  c #40528D",
">  c #49528E",
",  c #445B8F",
"<  c #454792",
"1  c #4B4692",
"2  c #464D91",
"3  c #4B4D92",
"4  c #494F99",
"5  c #455394",
"6  c #4A5395",
"7  c #445A95",
"8  c #4C5C95",
"9  c #455499",
"0  c #4C5599",
"q  c #465B9B",
"w  c #4B5C9C",
"e  c #505690",
"r  c #505E95",
"t  c #50569A",
"y  c #515B9E",
"u  c #416197",
"i  c #4C6296",
"p  c #45629D",
"a  c #4A619D",
"s  c #46699F",
"d  c #49689F",
"f  c #52639C",
"g  c #475EA2",
"h  c #4B5EA1",
"j  c #535DA2",
"k  c #4664A2",
"l  c #4C64A3",
"z  c #456BA5",
"x  c #4A68A4",
"c  c #4B69A7",
"v  c #486AA7",
"b  c #4A6AA7",
"n  c #4B6BA6",
"m  c #4969A6",
"M  c #4C68A7",
"N  c #4B6AA6",
"B  c #4465AA",
"V  c #4D66A9",
"C  c #4C67AA",
"Z  c #4C66A9",
"A  c #466DA8",
"S  c #466EA9",
"D  c #476FAA",
"F  c #456CAB",
"G  c #4B68AA",
"H  c #4D69A8",
"J  c #4F68A8",
"K  c #4E6AA9",
"L  c #4C69AB",
"P  c #4C6BAB",
"I  c #4F6BAA",
"U  c #496DA9",
"Y  c #4B6FA9",
"T  c #4B6DAA",
"R  c #486FAA",
"E  c #4A6EAA",
"W  c #4B6FAB",
"Q  c #4C6CA9",
"!  c #4F6CA8",
"~  c #4D6DAA",
"^  c #4E6CAA",
"/  c #4C6EAB",
"(  c #4F6FAB",
")  c #4B6DAC",
"_  c #4D6FAC",
"`  c #4F6FAC",
"'  c #4C6CAB",
"]  c #5160A1",
"[  c #5261A2",
"{  c #5062A4",
"}  c #5166A7",
"|  c #5163A4",
" . c #5166A8",
".. c #516AAA",
"X. c #516FAD",
"o. c #516BAA",
"O. c #4671A6",
"+. c #4B73A7",
"@. c #4C71A6",
"#. c #4B75A7",
"$. c #4670AA",
"%. c #4771AB",
"&. c #4572AB",
"*. c #4673AC",
"=. c #4675AD",
"-. c #4776AE",
";. c #4473AB",
":. c #4970AB",
">. c #4870AB",
",. c #4B72AB",
"<. c #4D71AB",
"1. c #4C75A9",
"2. c #4971AC",
"3. c #4A71AC",
"4. c #4B72AD",
"5. c #4C70AC",
"6. c #4D71AD",
"7. c #4E70AD",
"8. c #4F71AE",
"9. c #4C73AE",
"0. c #4F73AF",
"q. c #4E72AE",
"w. c #4A74AE",
"e. c #4D74AF",
"r. c #4C74AF",
"t. c #4B72AD",
"y. c #4A78AC",
"u. c #5171AE",
"i. c #5072AF",
"p. c #5172AD",
"a. c #4E6CB2",
"s. c #4574B3",
"d. c #4C76B0",
"f. c #4F76B1",
"g. c #4C74B2",
"h. c #4778B0",
"j. c #457BB5",
"k. c #4978B0",
"l. c #4B78B1",
"z. c #4C79B2",
"x. c #4C7BB3",
"c. c #4D7CB4",
"v. c #4B7AB6",
"b. c #4576B8",
"n. c #4E74B8",
"m. c #457CB9",
"M. c #4B7DB9",
"N. c #5074B0",
"B. c #5174B3",
"V. c #5279B5",
"C. c #597CB6",
"Z. c #5173B8",
"A. c #537DBB",
"S. c #4B84B6",
"D. c #4583BB",
"F. c #4B83BC",
"G. c #4C8BBE",
"H. c #5183BE",
"J. c #5D88BF",
"K. c #4993BF",
"L. c #3E8FC4",
"P. c #3E91C7",
"I. c #3F97C9",
"U. c #4186C1",
"Y. c #4D87C1",
"T. c #468BC2",
"R. c #4C8CC3",
"E. c #5484C4",
"W. c #518CC5",
"Q. c #598AC4",
"!. c #538CCA",
"~. c #4091C0",
"^. c #4D91C6",
"/. c #4499C4",
"(. c #4A9AC3",
"). c #4496CA",
"_. c #4D94CA",
"`. c #459BCC",
"'. c #4B9ACD",
"]. c #5393C7",
"[. c #5195CB",
"{. c #5B95CA",
"}. c #519ACE",
"|. c #5999C9",
" X c #4C9ED1",
".X c #539DD2",
"XX c #4EA0CF",
"oX c #4DA0D1",
/* pixels */
"p p q q 0 6 2 3 & 2 3 3 3 3 3 5 k z &.l.c.z.h.-.-.&.F z x J J Q s x x J C l a 8 ",
"p a q w 0 6 2 2 & * 2 3 3 3 6 5 p k F r.z.z.l.-.*.&.&.F E Q Q Q n n E J G l a i ",
"p a a w 0 0 2 2 & & 3 3 6 6 6 6 q k x 7.N.g.g.w.*.&.&.F F ,.7.<.+.+.2.) J l a 8 ",
"a w a w 0 0 5 2 & 2 2 6 6 6 9 9 q w l J i.N.r.r.&.&.&.&.&.2.2.,.1.1.7.J C l w 8 ",
"q w a w w 0 5 2 2 2 5 6 0 0 7 9 q w l J o.i.7.r.&.&.&.,.,.,.E E ,.@.Q l h w 8 e ",
"q q w l w w 0 6 5 6 9 0 q 0 q q q q l J o.7.7.r.F E ,.E E Q x x n d l h 0 0 * ; ",
"7 q w ] ] w 0 0 0 0 0 0 w w p q k k x Q 7.7.r.r.E E Q Q J l l l a q 0 6 3 1 - = ",
"5 7 w ] ] y w 0 0 0 0 w w a p p k z z E 2.7.7.7.E Q Q ..| { h w 7 7 5 < 1 % . . ",
"5 5 7 w a a a p 7 7 7 7 7 0 w w x z E ) ) Q G l M l C l l w q 0 & * 2 1 < & # # ",
"5 7 q a l l x p 7 q q q w w f l x E 7.7.7.Q G l l l l l h w 9 5 * * 2 3 3 2 & # ",
"q w l | M M x x p p p l l | | ..7.2.2.7.7.Q x l l l { j w 0 6 3 * * 3 3 4 6 6 > ",
"q h l J J ) E G k k k l l ....o.2.2.2.2.E x k l l { { j y t 3 3 & & 2 6 6 0 8 e ",
"q l l J ) ) E E z z z x x J ..o.E ,.E z z k q q l ] j j w 6 3 2 & & 5 9 0 w 8 r ",
"k l G ) g.g.2.2.F F v v v G J J M x l k q q q q w w w w 0 9 2 & : : 5 9 0 w w r ",
"l G ) g.f.f.g.g.g.2.2.F G G G C l l h w w q q q h h l l h w q 5 : 5 9 q h h a f ",
"G ) g.B.V.V.v.v.z.g.g.) F G v C { j j w w w q q | |  . .l l l a 7 7 q h h l f f ",
"O m.D.F.F.F.D.m.m.M.M.f.g.a.L C C C C l l l l l Z G g.f.v.s.o F a w l B F F F ,.",
"T.T.R.^.^.^.R.Y.Y.Y.Y.H.A.f.g.g.) ) ) ) ) ) ) ) g.f.A.H.F.F.D.v.<.p.2.s.b.m.c.c.",
"_.'.'.'.'.'._._._._.].W.Y.F.m.v.g.z.f.v.v.V.M.M.M.F.W.].]._.^.R.S.S.D.D.U.T.R.W.",
" X XoXoXoX`.).).'.'.'._.^.Y.D.m.F.F.F.F.H.H.H.F.F.Y.R.[.}.'.'.'.K.K.~.L.P.)._.|.",
"oXoX X X'.`.`.`.oX X X.X[.R.T.D.F.F.F.F.F.H.F.Y.F.G.^._.}. XoXXX(././.I.).'.[.|.",
".X}.'.'.).).).). X.X.X.X}.].Y.F.j.v.v.v.M.M.M.M.F.F.R.].[.}.'.}.(.(.).'. X[.{.{.",
"W.W.R.R.T.T.T.T._._.[.[.].R.F.m.*.2.2.g.g.g.g.g.g.v.m.F.R.R.^.^.G.G.^._._.!.Q.J.",
"F.F.F.D.D.D.D.D.D.Y.R.R.Y.F.j.s.F G G G G G G v v F s.j.m.D.F.F.S.S.G.W.!.E.A.C.",
";.;.;.,.,.<.E E Q i.N.V.V.r.&.x w w w 0 0 w y j y ] | ..o.Q i.i.i.N.M.M.m.v.y.#.",
"A A A n n x x x p x M o.<.n z p 7 5 5 2 2 6 6 0 w w l l x x n Q <.7.z.b.b.s.O.z ",
"x x x x l w w q 7 q a l x x p p 5 5 & & & & 2 3 0 w w w p p k x n E g.s.s.F z s ",
"a w w w w 0 0 6 5 0 w l l l l a 9 9 6 5 5 6 6 6 0 w w w q q p p M Q g.g.s.F p p ",
"y y y t t 6 3 3 3 6 w w ] l l l w w 0 0 0 0 t t t y y w 0 q w a Q i.g.n.n.) x a ",
"0 0 t t 6 3 3 3 & 2 0 0 w a a w w 0 w w 0 0 6 6 t t w 0 9 0 0 a M Q B.Z.Z.a.l a ",
"6 6 6 6 3 3 2 2 & 2 6 0 q q p p q 0 0 0 0 6 6 3 3 3 6 2 2 5 0 0 l l ) a.a.L a 8 ",
"2 3 3 3 3 3 2 & 2 6 0 0 w p p a q 0 0 w 0 6 6 3 & & & & X & 5 9 q k Z a.a.Z w 6 ",
"% % % % $ & 3 3 2 0 w y w w w a u u 7 7 6 * * % @ @ @ @ + * * > > 0 w l l k 7 , ",
"3 * $ $ & 2 6 6 0 w w ] a w w a u u p 7 6 * % @ @ @   @ @ % * * * 6 w l k k 7 , ",
"2 2 2 2 5 5 9 0 w l | | l l l x d d a w 0 * % @ @ @   @ @ + % % * * 0 w g q 7 , ",
"9 5 5 9 9 q q w l l M M x x k x l l l a w 6 * % $ % % % $ % $ % + * 6 0 h w 7 7 ",
"q q q q q w q a l l M l l p p l M M M | l w 6 2 2 2 2 2 2 * * % % * 6 0 h w 7 8 ",
"q q w w w w w w w a a a w q q q x E Q o.J l w q q 0 0 0 0 6 3 3 * 3 0 w h w q 8 ",
"w w w w w w w 0 7 0 0 q 9 9 9 q x F 7.g.7.) x l k l l h h w w 0 6 6 w h k k a i ",
"w w w w w w 0 0 5 9 0 9 5 5 6 q z &.g.v.v.g.2.E v G J C  .l h w w w h l k k a i "
};
