/* XPM */
static char *_c3351d19fff486ba6df41687fb41d18[] = {
/* columns rows colors chars-per-pixel */
"128 128 49 1 ",
"  c #262D1A",
". c #20341B",
"X c #29321C",
"o c #3A321B",
"O c #323819",
"+ c #353819",
"@ c #482C19",
"# c #5D3921",
"$ c #2A4323",
"% c #2B4423",
"& c #2F4724",
"* c #2E4927",
"= c #354124",
"- c #394323",
"; c #3F4A22",
": c #3B4826",
"> c #3D4826",
", c #3F4D2A",
"< c #3C5F32",
"1 c #4B4123",
"2 c #414921",
"3 c #444821",
"4 c #404C23",
"5 c #464C23",
"6 c #554B28",
"7 c #4F5327",
"8 c #4F4F31",
"9 c #514E31",
"0 c #565232",
"q c #595332",
"w c #6B4226",
"e c #52602C",
"r c #4C6336",
"t c #4F6437",
"y c #516437",
"u c #6E6134",
"i c #666C32",
"p c #4F6649",
"a c #5F6644",
"s c #5B7852",
"d c #666640",
"f c #70674A",
"g c #6D794D",
"h c #6C7C56",
"j c #8A5531",
"k c #826048",
"l c #857A54",
"z c #9C7051",
"x c #7E8352",
/* pixels */
"<<<<ssss<<<<< 222222222 2 222 2  e222   2  ii 22eeee <<<<<sp****<<<*<  22  eeeeeeee jwwjj   2 22eeeee 222  iiiiiiii  333333333  ",
"<****<<<s<<   22222222222 22 222   22 i   iii 222eee <<<<<<sss<<*<*<< 22  eeeeeee;e jjj   22  22eeee2 22  iiiiiiiiii 33333333  2",
"<<<<***<<< 2222eeeeee2222 2 222 jj  2 iiiiiiii 2222e  <<<<<<<<<<*<*<< 2  eeeeeee;ee     222  22eeeee 22  iiiiiiiiiii 33333333 22",
"<<<<<<<**  222eeeee222222 2     jwj   3iiiiiii 222222 <<<<<<<<ss**<<<    2eeee;;eee 222222 2 22eeee2 2  iiiiiiiiiiii 3333333  22",
"<<<<<<<<<< 2eeeeeee22222    i7+ jwjjj 33iiiiii     222 <<<<<<<<s<*<<<<<< 2e;;;eeeee222222    22eeee  2 iiii     iiii 3333333    ",
"<<<<<<<<<<< 2eeeee2222   iii773 jwwjjj  3iiiiiiiii  22    <<<<<ss*<<<*<< OO;eeeeeee22222  2 22eeee  2   33  333   ii 33333333333",
"<<<<<<<<<<<  2eeee22   iiii77i jzzwjjjj 333iiiiiii 222 <<<<<<<<<s<*<**<  2222 22222222e  22   ee2     33   333333    33333333333",
"<        <<< 2eee22  7iiii7iii jzjwzjjjj 33iiiiii       <<<<****<<*<*<< 22222   2222   222222       33333  3333333       3333333",
"< 224222     e ee2  i7iii7iii3 jzjjkwjjjj 33iiii  =====   <<<<<<<<*<<<< 22222 e      22  2222e2222 333333333333    eeeee    3333",
"< 222222222ee  e22 ii7i77iiii3 jzjjkwjjjj  33ii  ====y===  <<<<<<<*<<<  22222e ee  2222   2222222 333333333333  e;;eeeeeeee    3",
"  22222222ee   e2  iiii7i77733 jzjjwkjjjjj  3ii ====yyy===  <<<<<<<*<<         eee   2  e 222222  33333333333  eeeeee;;;;;eee2  ",
"e2222ee22eee u 22 iiii777ii333 jzjjjkjjjjjj 33  ===yyyyy==y=  <<<<<*<  9999999 eeeee   ee 22222  33333333333  eeee;;;eee;eee222 ",
"eeeeeeeeeee  6 22 iii7iiii3333 jzjjjwzjjjjj   ====yyyyyyyyyyy    <<*< 999d99d9 eeeeee  eee 2222 333333333333 eee;;ee;eee;222e222",
"eeeeeeeeee  u6u   ii77iii3333  jjjjwjkjjwjjj ====yyyyyyyyyyyy===      9dddddd9  eeeee2eeee e22  33333333333  e;;;eee;eee;2222222",
"eeeeeeeee  uu6uu  ii7iiii333   jjjjwjwzjwwjj ===y==  =yyyy ====  dd  9dddddddd9 eeeeeeeeee  22 33333333333  e;;eeeee;eee;ee   22",
" eeeeeeee uuu6uuu i77iii333  > jjjjwjjkjjjjj ==yy==    ==   ==  dddddddddddddd9 eeeeeeeeeee 22 3333333333  e;eeeeee;eeeee   1   ",
" 2eeeeee  ulu6uuuu 7iii333  >== jjjjjjwjjjjj =yyy== ee    e   dddddddddddddd999 eeeeeeeeeee    333333333  ee;eeeeee;eee   111 9 ",
"  eeeeee ullu66uuu  i333   ====  jjjjjjwwjjj yyyy== eeeeee22 d99dddddddd9999999 eeeeeeeeee2222 33     33     eeeee;;e   11111 9d",
"2 eeeeee uluuu6uuuu  33  ===yyy=  jjjjwjwjjj yyyy== eeeee222 9  9ddddddd        eeeeeeee22222     <<<  33333          111111 99d",
"2 eeeeee uluuu6uuuuu    ===yyyyyy  jjjwwjwjj  ===== eeeee222 9  99ddddddd  22222eeee2222222   <<<<<<<<  33333 111111o1111111 9dd",
"2     ee uluuu6uuuuu  ====yyyyyy  2  jjjjwj 22      eeeee222    99ddddddd9   2e222222222    <<<<s<<<<<<  333 11111166uuuu111 9dd",
"2222e ee uuuuu6uuuuuu  ===yyyyyy 222  jjjww 2222   eeeeee222  ii 99ddd999999  22222222  <<<<<<ss<*<<<<<<  33 11uuuuu6uuu1111 9dd",
"22222 ee uuuu666u66uuu  ==yyyyy= 2222  jjj  222  eeeeeee222   ii 9999999dd999  22222   <<<<<<<s<<*<<<<<<< 3 uuuuuuuu6uuu111 99dd",
"22222 ee uuuu6u6ul6666u ==yyyyy  2e222  jj 2222  eeeeee222  2 ii 99                e    <<<<***<******<<< 3 uuuuuuuu6uuu111 9999",
"2222  ee u11u6u66lluuuu  =yyyyy 22ee222  j 2e222  eee222  ee  iii   ##jjzzzzzzzjjj   yy   <<<<<*<s<<<<<<<<      uuuu6uu111   9  ",
"2222 eee u11u6uu6uluuuuu =yyyy= 22eeee22   2ee222  2222  e22 iiii ####jjjjjjjjjjjjjj    y  <<<<*<s<<<<<<<<  ddd uuu6uuu111   9 <",
"222  ee2  111uuu66lluuuu =yyyy  22 eeee22 2eee2222     ee22  iiii ####jjjjjjjjwwjjjjjj#    <<<**<s<<<$$$<< dddd uuu6uu111 <<   <",
"22  eee22  111uuu66luuuu =yyy- 22   eeee2eeeeee2222e  eee22 xiiii @##jjjjwwjjjjwwjjjj##  <<<<<**<<<<<$ $<< dddd  uu6uu111 <<  <<",
"2  eeeee22  111u6u6uuuuu =yy:  22 e   eeeeeeee2222  egee22  xi7ii @@#jjjjjwwwjjjwjjj##  <<<<<<**<<<<<$   < ddddd 11ou111  <<<<<<",
"  eeeee2222  11u6u6uu6uu =yy  222 eee  2222222222  egge222 xii7ii ##@wwjjjjjwjjjjwj##  <<<<<**<<*<<<<$ d   ddddd 11o1111 <<<<<<<",
"  eeeee22222  116uu6u66u ==  2222 ;gee            eggee22 i7iiiii ###jjwwwwwwwjjj###  <<<<****<<*<<<$$ dddddd dd 11o111  $<<<<<<",
"eeeeee222222e 11ouu6ul6u =  22222 ;egeeeeeeeeee  eegeee2  i7iiii  ##jjjjjjwwjjww@@@  <<<<**<p<<<*<<<$$ ddddd  dd 1o      $$$$.*<",
"e  eee2222     11uuu6luu   22222 ee;eggee;eeee  2eeeee22 ii7iiii   #jjjjjwwjjj####  <<<<*<<sp<<<*<<$$$ dddd   dd 1o j     $$$$.<",
"    222    ==== 11uu6lu   222222 ee;eeeee;eee2 22eeee22  ii7iiii =  jjjjjjjjjj#### <<<<<<<sp<<<<<<$$$ dddd  <  d 11 jjjjj   $$$*",
"i    2  ======= 11uu6lu       22 eg;;eeee;ee22 2e;eee22 iiiiiii ===   jjjjjjjj###      <<<s*<<< <<$$   ddd s<< d 11  jjjjjj   $$",
"iii    ========= 11u6uu  dddd 22 eeg;eeee;ee2  gee;e22 i7iiiii  =====    jjjjjjj######  <<*<<<   $$$ <  d  s<<   1   jjjjjjjj  $",
"7ii =  ====XXXX= 11u6u ddddd  2  eege;ee;;e22 egee;O2  x7iiiii =========         ###### <**<<< =  $$ <<   <s<<     d jwwwjjjjjj ",
"777  == ====,yXX= 116u ddddd 22 eeeee;ee;e222 egeeeO  xi7iiii  =====yy== =======    ### <*<<<  ==  $ <<<  <s*< ddddd jjjwwjjjwjj",
"iiii ==  =yy,,=X= 116u ddddd    eeeeee;e;e22 egeee22 xii77ii  ======yyy= =====   ==     **<<  ==== $ <<<<<<s*<  dddd  jjjjwjjwjj",
"xiii ===  =yy,yX== 16 dddddd dd e;;;;;;eee22 egee22  xiii7i  ======yyyy= ====  ======= <<<<<   =     <<**<s<*<< dd    jjjjjwjwjj",
"iiii ==== =yy,yX== 1o ddddddddd  eeeee;;ee22 egee2  xxiii7  ======yyyyyy ===  ===yyy== <<<<  =   <<<<<<<*<<*<<<    << jjjjjjwjwj",
"iii  ===== yyyyXXX 1 ddddddddd   eeeeee;;e22 gee22 xxiiii   =====yyyyyyy ==  ===yyyy== <<<  = == <<<<<<<<*<*<<<<<<<<<  jjjjjjwwj",
"ii  X=====  ,,,X=XX  ddddddddd 22 eeeeee;;22 ge22 ix7ii  d   ==yyyyyyyyy    ===yyyyy== <<  =  ==  <<<<<<<***<<<<<<<< d jjjwwwwjj",
"   =XXXXXXX yy,====  ddddd88dd 22 2eeeeeeeOO  e2  xx7i  dd <  ===yyyyyyy   ====yyyyy==   === ==== <<<<<<<<**<*<<<<<< d  jjjjwwwj",
" ===X,====  yy,===  88d888dddd  22 eee;;;;O22 e  xxi7  ddd <<   ===yyyy  < ===yyyyyyy=  ==== ==== <<<<<<<<<***<<<<<  99  ###jjjw",
"====X===  yyyy,=== dd88dddddddd    2eeeeeee22 e ixi7   ddd <<<<  ===yyy << ==y  yyyyy======= y====  <<<**<<**<<<<s< 999d  ######",
"====X=   y,yy,y==  ddd88ddddddddd       eee222 iii7i e   d <<<s<   =yy  <<  =    yyy  =====  yy==== <<<<**<*<<<<s< 999dd9    ###",
"====   =yy,yy,yy= dddd8d88dddddddd   22         ii7  eee   <<<s<<<  y  <<<$   ## y     ==== yyyyy=== <<<<<<*<<ss<  99ddd9  2    ",
"==   yyyy,yy,yyy ddddd8dd88888dddddd 222222 22  iii eeeee   <<*s<<<   <<<<$  ###   ### ==== yyyyyy==   <<<*<ss<<  99dddd  e22222",
"    yyyyyyyy,y    dddd8dddd8ddddddd  222222 22 iii eeeeeee  <<*p<<<<<<s<<<$ ##### #### ===  yyyyyyyy==  <<*<<    99ddddd ee2222a",
"222  yyyyyy    ## dddd8dddd888dddd  22222    2 iii e;eee;ee <<<*s<<<<<p<<<$ ########## ==  yyyyyyy==  e       d999ddddd9 eeeeegg",
"2222  y    ddd ## dddd8ddddd8dd    22222 eee 2 ii  e;eee;ee  <<*s<<<<<p<<<$ ##########    yyyyyy===  eeeee ==  99ddddd9 eeeeeeeg",
"22222   dddddd ## dddddddddd8dd <   222 eeee 2  i eee;ee;eee <<<ps<<<<p<<<$ ##########  3 =yyy===   geeeee ===  9ddddd9       eg",
"ee   dddddddd  ## ddd    dddddd <<<   e 2eeee 2 i eee;ee;eee <<<*s<<<*s<<$$ #########  33  =y===  egeeeeee ==== 99dddd9999999 eg",
"ee u dddddddd ###  dd ##  ddd   <<***   22eee     eeee;eeeee  <<<*s<<*s<<$$ ########  33+3 =y=   egeeeeee  ====  99ddddd99999 eg",
"e  u dddddddd #### dd ###    <<<<<<<*<   2eeee   eeeee;eeeeee <<<*ss<*s<<$$ #######  33377     eeggeeeeee ====== 99dddddd9999 eg",
"e uuu dddddd  ####    ##  <<<<<<<<<<<<<<  2eeee  e;;;ee;eeeee  <<<*s<*s<<<$ ###    33337i77  22eggeee;ee  ======  9ddddd99999 ee",
" uulu dddddd  #####  ####  <<<<<<<<s<**<< 2eeeee eee;;;;eeeeee <<<*ss*s<<<$ #     +33i7iii7i  2aeeee;eee ======   99dddd9  999 e",
"luuul ddddd dd ####@######  <<****s<**<<<  2eeee eeeeeee;ee     <<*<<*<<<<$   $$ 33337iiiiiii  2eeee;ee  ==       99dddd9   99 e",
"uuuul dddd  dd ##jjw##j####  **<ss<**<<<<< 22eee eeeeeee;e  <<  <<<*<*<<<<$$$$$$ 333i77iiiiiii 22ee;eee     ee  ## 9dddd9 <    e",
"uuuul ddd  dddd jjjwjjj####  <<s<<*<<<<<<< 22eeee eeeeeee;e <<****<<**<<<*<<<<$$ 33i7i7iiiiiii  22;;eeeeeeeeee ### 9dddd9  <<  e",
"uuuuul d  ddddd jjjwjj####  <ss<**<<<<<<<< 22eee e eeeeeee;  <<<<<***<<<<*<<<<$$ 337iii7iiiiii 222;eeeeeeeeee  ###  9ddd99 <*<< ",
"uuuuul  ddddddd jjjwjj###  <ss<*<<*<<<<<<< 222ee d  eeeee;ee <<<<<<<<*<ss*<<<$$  37iiii77iiii  OOOeeeeeeeeeee ##### 9dddd9 <*<<s",
"uuuuul dddddddd jjjjw###  <<s<**<s*<<<<<<< 222e  ddd  eeeeee  <<<<<<<*<<sp<<<$$ +++iiiiiiiiii O2O2;;;;;;;;ee  ####j 99ddd9 <<*<s",
"6uuuul dddddddd jjjj###  <<<**<<<s*<<<<  < 222e ddddd   eeee   <<<<ss<*<<*<<$$$ 3333333iiiii  22Oeeeeeeeee;e ####jj 99ddd9  <<*<",
"6uuuul dddddddd jjjj##  <<**<<<<<s*<<<     22e  ddddddd      d  <<<<ss*<<<*<$$$ 333333333i   222;eeeee;eeee  ####zj  9ddd99 <<<*",
"uuuuuu dddddddd  jj##  ***<<<<<<<<*<<  22  22  dd      dddddddd  <<<<ss*<<*<$$             22222;eeeee;;eee ####zzjj 9ddd99 <<<*",
"ulu6uu dddddddd    ## *<<<<<<<<<<<<<< 2222222 dd  <<<<   dd    <<<<<<<<<*<*$$  111111111  22222e;eeeeee;ee #####zjjj 9ddd99 <<<<",
"lu6uuu dddddddd 222  <<<<<<<<<   <<<  222222 d    <<<<<<  d   <<<<<<******<$$ 11u11o11111 2222ee;eeeeeee;e  ###jzjjj 9dddd9 <<<<",
"u66uuuu ddddddd 2222          3+ <<  222222    <<<<<<<<<< d d   <<<<<<<<<*$$  1uuuu66uuu1  222ee;eeeeeeeeee ###jzjjj 9dddd9  <<<",
"u6uuuuu dddddd 2222222 33333333+ <  3 22222  <<<<<<<<<<ss   dd    <<<<<<<$.$ 1uuuu6u66uu11 222ee;ee  eeeeee ###zjjjj 9dddd9  <<<",
"66uuuuu ddddd  2222222 33333333+3  33 2222  <<<sss<<<<<s<<  d  ==    <<<<$$  1uuul6uu6uu111 222e;ee    eeee ###zjjjj 99     <<<<",
"uuuuuuu ddddd 22222222 333+3333+3333i 222  <<sss<<<<<ss<<<<   =======   <$$ 1uuuul6uuu6uo11  22eeee 99   ee ###zjjjj 99  $$<<<<<",
"uuuuuuu dddd 222222222 333++i33+333ii 222      <<<<<<s<<<<<$  =========  $  ouuuul6uuu6uuoo1  22eee 9999     ##zjjjj 99d  $$$$$$",
"6uuuuuu dddd 222222222 333ii7+3+3+iii 22 33333  s<<<s<<<<<<<$ ====yyy===    1uuuul6uuuu6uuoo1  2eee 99d9 #   #jzjjjj 99dd  $$$$$",
"6uuuuuu  dd  2222 2222 iiiiii777i7iii   333333  s<<s<<<<<<<<$  ==yyyyyy==== 1uuuul6uuuu6uu1o11    e 99d9 ### #jzjjjj 99ddd9  $$$",
"6uuu6uuu d <  22   222 iiiiiiii77iiii  33333+3 s<<<<<<<<<<<<$$ ==yyyyyyy=== 11uuuu6uuuu6uuu    9    99dd j####jjjjjj 99ddd99   $",
"u6u66uuu  <<< 22 <  22 ii7iiiii7iiiii 33333i+  s<<<<<<<<<<<<<$ ==yyyyyyyy==  1uuuu6uuuuu6uu 99 999  99dd  ###jjjjjjj 99dddd999  ",
"66uuuuuu  <<<< 2 << 22 iii777ii7iiiii 3+33i33 s<<<  <<<<<< $$$ ==yyyyyyyyy== 11uuuuuuuuu6uu 999999  99ddd ###jjjjjj d99dddd999  ",
"u6uuuuuu <<<<<<  <<  2 iiiii77i7iiiii 3+33i33 s<    <<<<<   $$ ==yyyyyyyyyy= 11uuu  uuuuu6u 99dd99999dddd  ###jjjjj d99ddddd999 ",
"116uuuuu <<<<<<<<<<< 2 iiiiiiii7ii33 33+3+i3  <  3  <<<$$ =  $ ==yyyyyyyyyy== 1uu =  uuuu6u 999ddddddddd99 ####jjjj 999ddddd9999",
"11ouu11u <<<*<<<<<<< 22 iiii33+ i333 33+33i3 <  33  <<$$  ==   ==yyyyy=       uu ====  uu6u  9999ddddddd9     #jjj  999dddddd99 ",
"111ou111 *<<*<<<<<<<  2 ii3333  i333 333+i33  333 = $$$  ====  ====     ####jj      == =uu6   9999dddddd  uuu   jj 9999dddddd  y",
" 11o1111 **<*<<<<<<<< 2  33   y 333  333+i33 333  == $  ====== ==   ######jjjjjjjjjj      6 =  9999dddd9 uuu6uu    99999dddd9 yh",
"  1oo111<<**<*<**<<<< 22   yyyy 333 333+ii+3333  y==   ======= =  #####jjjjjjzzzzzjjjjj =   ===  999ddd9 uuu6uuuuu   9999d99  hy",
"e  1o11 <<<*<<<*<<<<<< 2  ,yyyy 33  33+3i7+3333 yy==  =======   ######jjjjjjzzjjjjjjjjj ==  ====    d    uuu66uuuuuu   99999 hh,",
"ee  11 <<<***<<*<<<<<<  yy,yyy 33  333+iiii333  yy== ======   u ####jjjjwjjjjjjjjwwjjj  ==========    22 uuu66u666uuuu   99  hy,",
"ee 1   ***<<*<<*<<<<< , yy,yyy 3  333+iiiii33  yy===XX==    uuu ####jjjjwwwjjjwwwjjjj  ==========  222e2 uu66u6uu6uuuuu  99 yyyy",
"ee  < <<<<<<*<<*<<<< y,yyy,yy    333+73333333 yyy==XX    111uuu ###jjzzzjjjwwwjjjjjj  =========  22eeee2 uu6uu6uuuuu   9999 yyyy",
"eee <<<<<<<<<*<<<<< yy,y,,yyy   333++i333333  yy==X=  111luuuuu ##jzzzjjjwwjjjjjjjj ===    ===  22eeeee2 uu6uuu6uuuu  u099  yyy ",
"eee  <<<sss<<**<<< yyy,y,yyyy  3333+77+    3 yyy=X  1u11lluuuu  ##jzjjwwwjwjjjjjjj ==== <<     222eeeee2 uu6ull6uuuuu  q99     =",
"eee  <<<<<<<***<< ryyy,,yyyy 1  333iii3 yy   yyy=  1uuulluuuuu #jjwwwwjjjwwjjjjj  ===== <<<<<   222eeee2 uuuuulu6uuuuu  99 =====",
"2eee   <<<<<*<<<< tyy,,yyyy  11   333i3 yyyyy     11ulluuuuuu  #jjjjjjjjjwjjjjj  ===   <<<<<<<<  2222ee2 uuuuuul66uuuuu  9 ===yy",
"2ee 22  <<<<<<s< ryyyy,,,,, 111uu  3333  yhyyyy  1111uuuuuuuu  ###jjjjjjjwjjjj  ==   <<<<<<<<<*<  222ee2 u   uul6u6uuuuu 9 yyyyy",
"2ee 2222 <<<<<s< yyyy,yyyy  oouuuuu  333 yyhhhhyy  111uuuuuu #######jjjjjjjj   3   <<<<<<<<<<*<<< 222ee2   2 uuul666uuuu   yyyyy",
"22e 22222 <<<<s< yyy,yyyyy 116uuuuuu  33 y==yyyhhy  111uuu        ##jjjjjj   333   <<<<<<<<<*<*<< 22eee2  e2  uulfuuuuuuu  yyyyy",
" 22 2222  <<<<s< yyy,,,,y 1116uuuuuuu  33 ==yyyyhhy  11uu  ######         33333333  <**<<<<*<<*<< 22eeee2ee22 uuu6uuuuuuuu  yyy=",
"  2 222  <<<<<<< yy,y,yy  11uu6uuuuuuu  3  ==yyyyyyy  1   ####### $ 33333+33+ii3333  <***<<*<<*<<         e22 uuuuuuuu    u  y==",
"    22     <<<<  y,yyyy  111uu66uuuuuuu 33   =yyyyyy=   ####@@### $ 33iii7ii777i3333 <<<<<*<<<<<<  22222 eee2  uuuu    ==    ===",
"e  22222222      y,yyy  111uuu6u66uuuuuu 3 =  ====    == ###@#### $$ iii77iiii77733  <<<**<*<<<<  222222 eeee2 uuuu =====y===   ",
"ee 22222   ===== ,yyy   11uuuu66u66uuuuu   ===     ====y ###wjjjj $$ ii777iiiiii+3  <ss*<<<*<<<< 222222  eeee2  uuu ===yyyy=  ##",
"eee 222  ====== yyyy  9 1uuuu6u6uuu66uuuu  ===========y ####wjjjj $$$ iii7iiiii33  <ss*<<<<*<<<< 22eee2 2eeee22 uu ===yyyy== ###",
"eee  2  ==yyy== yy   99 1uuuu6u6uuuuuuuuu  ===========  ###jwjjjj $$$ iiii7iiii3  <ss**<<<<*<<<  2eeee2   eeee2 u  ==yyyy== ##jj",
";;ee   ==yyyy==     999 uuuuu6uu6uuuuuuuu ============ ###jjwjjjj .$$ iiii7iii33 <<s*<<   <*<<< 222eee2222   ee    ==yyy==  jjjj",
"eeee  ==yyyyXX=  =  999 uuuuu6uu6uuuu   u ===X===yyyy  ###jjwjjjj .$$& iii7iii33 <<**   = <<<<  2222ee222222   e   =yyyy=  jjjjj",
"eeeee yyyyyyX====  9999  uuuu6ul6uuuu 5   ==y,yyyyyy  ###jjjwjjj $.<$%  iii7ii3 <<<   ==== <<<   2222eee2222222    yyy=== jjjwww",
"eeeee yyyyy,===== 9999d9 uuuu6uul6uuu 222 =yy,yyyyy  2 ##jjjwjjj $.<<$&  ii7733 <   ====== <<  3  2e22eeeeeeee  22 yyy==  jjjjjj",
"eeeee yyyy,,====  999dd9 uuuuuuul6uuu 222 =y,yyyyy  22 #jjjjjwjj $$*<$$& iii733   ====yy==    333   e22eeeeee  222 y==== jjjjjjw",
";eeee  yyy,yyy== 9999dd9 uuuuuuuuf6uu 222 =,,yyyy  222  jjjjjwjj $$*<<$$$ ii733  ====yy== 3  3++333  22eeeee  222e ====  jjjjjww",
";e  ee yyyyyyy== 999dddd  u   uuul6uu 222 y,,yyy  22e22 jjjjjwjj $s*<<$..  ii3    yyyyy== 33 33+3i33  22eee  222e2 ===  jjzjjwjw",
";ee      yyyy==  999dddd9 u 9  uulfuu 222 yyyy   22eeee  jjjjjjj $s*<<<.$$  i  $$ yyyyy== 33333+ii333  2e  2222ee2 ==  #jzjjwwwj",
";ee ####     == 9999dddd9   99  uuu6u 222 y   2222eeeee2  jjjjjj $<p<<<*$$$   $$$ yyyy=== 33i3377ii333 22 2222eee2    jjzjjwjjjj",
"O;e #@@##@##    999dddddd  9999  uuuu 222   22222eeeeeee2  jjjj  <<s*<**<$$$$$$$$ yyyy=== 3iiii77iii33 e2   22ee222  jjzjwwjjjjj",
"2;e ##@@#@##@##  999ddddd9 9999   uuu  22  22222222eeeee22 jjjj .<<s*<*<<<$$.$$$$          iiii7i7iiiii 22  2eee22  jjzjwjjjjjj ",
"2Oe ##@@@@##@###  99dddddd99999 22  u  22 222222222eeeeee2   jj .*<s*<<<<<$.$$$<< 99999999 iiii7i7i7iii    2eeee2  jzzjwwjjjj  =",
"eee  #@@@@##@###   99ddddd99999 222   2 2222222  22eeeeee2 2    $**s*<<<<<*$$<<<< 99999999 iiii7i7i77ii  22eeeee  jzjjwjjjj   ==",
"eeee ###jwwjwjjj y  9dddddd999 22222  22 22222   22eeeeee22 $$$ <<<s*<<<<*<<<<<<< 99999dd9  iii7ii7iiiii 22eeee  zzjjjj     ====",
"eeee ###jjwjjjjj yy 99ddd  d99 222222 222 22   u  22eeeeee2 $$$$<<<s<*<<*<<<<<<<< 99ddddd99 iii7ii7iiiii 22eee  y       ========",
"eeee #@@wwwwjjjj yy  9ddd <    22   222222   uuuu 22eeeeee2 $$$<<<<<s*<<*<<<<<<<< 9ddddddd9  iiiiii7iiii 22eee2  ===== =========",
"eeee  ##jjjjwwjj yyy 99dd <<   2  < 2222222 1uu6u 22eeeeeee2 $$<<<<<s*<*<<<<<<<<  9dddddddd9  iiiii77iii 2222222======= ======= ",
"2eeee ##jjjjjwjjj yy  9dd <<<<   <<  22222  1uu6u            <<<<<<<<*<<<<<<<<<< 99dddddddd99  iiiii7iii 2222       === ======  ",
"2eeee     jjjjwjj yyy 9dd <<<<<  <<< 22222 11uu6uuuuuuuuuuu   <<s<<*<*<<<<<<<<<s 99dddddddddd99  iiii7ii 22   999999           1",
" eeee  yyy   jjjj yyy 99d <<*<<<<<*< 2222  11uu6uuuuuuuuuuu = <<<s<<***<<<<<<<s  9dddddddddddd99    ii7i    d999    11111111  11",
" eeee  yyyyy    j yyy  9d <<**<<<*<< 2222   1uu6uuuuuuu66u  =  <<s<<<<*<<<<<<<< 99dddddd   dddd9999   ii  ddd9  1111111111111111",
" eeee   yyyyyyy    yyy 9  <<<*<<<*<<  22  2 uuu6uuuuu66uuu ===  <<s<<<*<<<<<<<  9ddddddd <<  ddd99  $    ddd99 111111111uuuuuuuu",
"2eee  2  yyyyyyyyy,,yy   <<<<**<**<<< 2  22 uuu6uuu66uuuu  ====  <ss<<*<<<<<<     dddddd  <<   dd  $$ d  ddd99  1111111o66uuuuul",
" eee 2222  yyyyyyyy,yy $$$<<*****<$$$    22 1u66u666uu111 ====== <<s<<<<<<<<  222       d <<<<    $  ddd dddd99  111111uuu666u6u",
"2 ee 22222   yyyyyyy,y $$$$<<<<**$$$$ 22 22 1u666uuuu111 ======== <<<<<<<<<  2222222      <<<<< $$  dddddd88d999  111uuuuluu66u6"
};
