/* XPM */
static char *_2e97ffa7b5c43e0af5c773e4fa7e3d9[] = {
/* columns rows colors chars-per-pixel */
"128 128 60 1 ",
"  c #2B1B0E",
". c #311D0E",
"X c #331715",
"o c #361917",
"O c #311819",
"+ c #381B18",
"@ c #3A1D19",
"# c #3F2612",
"$ c #3E2719",
"% c #2F2020",
"& c #3B2A2A",
"* c #3D2A2A",
"= c #401E1C",
"- c #402613",
"; c #442717",
": c #442A16",
"> c #4A2D16",
", c #422A1A",
"< c #4E2A1B",
"1 c #4E341E",
"2 c #5F3A1E",
"3 c #603A1C",
"4 c #643B1E",
"5 c #663D1F",
"6 c #401F20",
"7 c #412020",
"8 c #4A2426",
"9 c #492821",
"0 c #422C2B",
"q c #472E2B",
"w c #422E2C",
"e c #49322F",
"r c #543127",
"t c #583C2D",
"y c #4F3733",
"u c #4D3737",
"i c #503733",
"p c #653623",
"a c #653524",
"s c #6A3E21",
"d c #6E3B27",
"f c #602F31",
"g c #654327",
"h c #744D2D",
"j c #724E3A",
"k c #5B4B4B",
"l c #795940",
"z c #695656",
"x c #795051",
"c c #8F4D32",
"v c #904E33",
"b c #96643A",
"n c #825A42",
"m c #855A49",
"M c #8A694E",
"N c #A16952",
"B c #A87556",
"V c #A67C59",
"C c #967460",
"Z c #B68B71",
/* pixels */
"ccccNNNNccccc ********* * *** *  u***   *  ff **uuuu cccccNmddddcccdc  **  uuuuuuuu bhhbb   * **uuuuu ***  ffffffff  666666666  ",
"cddddcccNcc   *********** ** ***   ** f   fff ***uuu ccccccNNNccdcdcc **  uuuuuuu&u bbb   **  **uuuu* **  ffffffffff 66666666  *",
"ccccdddccc ****uuuuuu**** * *** bb  * ffffffff ****u  ccccccccccdcdcc *  uuuuuuu&uu     ***  **uuuuu **  fffffffffff 66666666 **",
"cccccccdd  ***uuuuu****** *     bhb   6fffffff ****** ccccccccNNddccc    *uuuu&&uuu ****** * **uuuu* *  ffffffffffff 6666666  **",
"cccccccccc *uuuuuuu*****    f8O bhbbb 66ffffff     *** ccccccccNcdcccccc *u&&&uuuuu******    **uuuu  * ffff     ffff 6666666    ",
"ccccccccccc *uuuuu****   fff886 bhhbbb  6fffffffff  **    cccccNNdcccdcc %%&uuuuuuu*****  * **uuuu  *   66  666   ff 66666666666",
"ccccccccccc  *uuuu**   ffff88f bVVhbbbb 666fffffff *** cccccccccNcdcddc  **** ********u  **   uu*     66   666666    66666666666",
"c        ccc *uuu**  8ffff8fff bVbhVbbbb 66ffffff       ccccddddccdcdcc *****   ****   ******       66666  6666666       6666666",
"c 0qq0**     u uu*  f8fff8fff6 bVbbMhbbbb 66ffff  #####   ccccccccdcccc ***** u      **  ****u**** 666666666666    uuuuu    6666",
"c *********uu  u** ff8f88ffff6 bVbbMhbbbb  76ff  ####3###  cccccccdccc  *****u uu  ****   ******* 666666666666  u&&uuuuuuuu    6",
"  ********uu   u*  ffff8f88866 bVbbhMbbbbb  6ff ####333###  cccccccdcc         uuu   *  u ******  66666666666  uuuuuu&&&&&uuu*  ",
"u****uu**uuu B ** ffff888ff666 bVbbbMbbbbbb 76  ###33333##3#  cccccdc  XXXXXXX uuuuu   uu *****  66666666666  uuuu&&&uuu&uuu*** ",
"uuuuuuuuuuu  n ** fff8ffff6666 bVbbbhVbbbbb   ####33333333333    ccdc XXX=XX=X uuuuuu  uuu **** 666666666666 uuu&&uu&uuu&***u***",
"uuuuuuuuuu  BnB   ff88fff6666  bbbbhbMbbhbbb ####333333333333###      X======X  uuuuu*uuuu u**  66666666666  u&&&uuu&uuu&*******",
"uuuuuuuuu  BBnBB  ff8ffff666   bbbbhbhVbhhbb ###3##  #3333 ####  ==  X========X uuuuuuuuuu  ** 66666666666  u&&uuuuu&uuu&uu   **",
" uuuuuuuu BBBnBBB f88fff666  ; bbbbhbbMbbbbb ##33##    ##   ##  ==============X uuuuuuuuuuu ** 6666666666  u&uuuuuu&uuuuu   j   ",
" *uuuuuu  BZBnBBBB 8fff666  ;-# bbbbbbhbbbbb #333## uu    u   ==============XXX uuuuuuuuuuu    666666666  uu&uuuuuu&uuu   jjj X ",
"  uuuuuu BZZBnnBBB  f666   -###  bbbbbbhhbbb 3333## uuuuuu** =XX========XXXXXXX uuuuuuuuuu**** 66     66     uuuuu&&u   jjjjj X=",
"* uuuuuu BZBBBnBBBB  66  ###333#  bbbbhbhbbb 3333## uuuuu*** X  X=======        uuuuuuuu*****     ccc  66666          jjjjjj XX=",
"* uuuuuu BZBBBnBBBBB    ###333333  bbbhhbhbb  ##### uuuuu*** X  XX=======  *****uuuu*******   cccccccc  66666 jjjjjjtjjjjjjj X==",
"*     uu BZBBBnBBBBB  ####333333  *  bbbbhb **      uuuuu***    XX=======X   *u*********    ccccNcccccc  666 jjjjjjnnBBBBjjj X==",
"****u uu BBBBBnBBBBBB  ###333333 ***  bbbhh ****   uuuuuu***  ff XX===XXXXXX  ********  ccccccNNcdcccccc  66 jjBBBBBnBBBjjjj X==",
"***** uu BBBBnnnBnnBBB  ##33333# ****  bbb  ***  uuuuuuu***   ff XXXXXXX==XXX  *****   cccccccNccdccccccc 6 BBBBBBBBnBBBjjj XX==",
"***** uu BBBBnBnBZnnnnB ##33333  *u***  bb ****  uuuuuu***  * ff XX                u    ccccdddcddddddccc 6 BBBBBBBBnBBBjjj XXXX",
"****  uu BjjBnBnnZZBBBB  #33333 **uu***  b *u***  uuu***  uu  fff   ggbbVVVVVVVbbb   33   cccccdcNcccccccc      BBBBnBBjjj   X  ",
"**** uuu BjjBnBBnBZBBBBB #3333# **uuuu**   *uu***  ****  u** ffff ggggbbbbbbbbbbbbbb    3  ccccdcNcccccccc  === BBBnBBBjjj   X c",
"***  uu*  jjjBBBnnZZBBBB #3333  ** uuuu** *uuu****     uu**  ffff ggggbbbbbbbbhhbbbbbbg    cccddcNcccpppcc ==== BBBnBBjjj vc   c",
"**  uuu**  jjjBBBnnZBBBB #332$ **   uuuu*uuuuuu****i  uuu** xffff 1ggbbbbhhbbbbhhbbbbgg  cccccddcccccp pcc ====  BBnBBjjj cc  cc",
"*  uuuuu**  jjjBnBnBBBBB #33,  ** u   uuuuuuuu****  uzuu**  xf8ff 11gbbbbbhhhbbbhbbbgg  ccccccddcccccp   c ===== jjtBjjj  cccccc",
"  uuuuu****  jjBnBnBBnBB #32  *** uuu  **********  uzzu*** xff8ff gg1hhbbbbbhbbbbhbgg  cccccddccdccccp =   ===== jjtjjjj ccccccc",
"  uuuuu*****  jjnBBnBnnB ##  **** &zuu            uzzuu** f8fffff gggbbhhhhhhhbbbggg  ccccddddccdcccpp ====== == jjtjjj  pcccccc",
"uuuuuu******u jjtBBnBZnB #  ***** &uzuuuuuuuuuu  uuzuuu*  f8ffff  ggbbbbbbhhbbhh111  ccccddcmcccdcccpp =====  == jt      pppp<dc",
"u  uuu****     jjBBBnZBB   ***** uu&uzzuu&uuuu  *uuuuu** ff8ffff   gbbbbbhhbbbgggg  ccccdccNmcccdccppp ====   == jt b     pppp<c",
"    ***    #### jjBBnZB   ****** uu&uuuuu&uuu* **uuuu**  ff8ffff #  bbbbbbbbbbgggg cccccccNmccccccppp ====  c  = jj bbbbb   pppd",
"f    *  ####### jjBBnZB       ** uz&&uuuu&uu** *u&uuu** fffffff ###   bbbbbbbbggg      cccNdccc ccpp   === Ncc = jj  bbbbbb   pp",
"fff    ######### jjBnBB  ==== ** uuz&uuuu&uu*  zuu&u** f8fffff  #####    bbbbbbbgggggg  ccdccc   ppp c  =  Ncc   j   bbbbbbbb  p",
"8ff #  ####....# jjBnB =====  *  uuzu&uu&&u** uzuu&%*  x8fffff #########         gggggg cddccc #  pp cc   cNcc     = bhhhbbbbbb ",
"888  ## ####>3..# jjnB ===== ** uuuuu&uu&u*** uzuuu%  xf8ffff  #####33## #######    ggg cdccc  ##  p ccc  cNdc ===== bbbhhbbbhbb",
"ffff ##  #33>>#.# jjnB =====    uuuuuu&u&u** uzuuu** xff88ff  ######333# #####   ##     ddcc  #### p ccccccNdc  ====  bbbbhbbhbb",
"xfff ###  #33>3.## jn ====== == u&&&&&&uuu** uzuu**  xfff8f  ######3333# ####  ####### ccccc   #     ccddcNcdcc ==    bbbbbhbhbb",
"ffff #### #33>3.## jt =========  uuuuu&&uu** uzuu*  xxfff8  ######333333 ###  ###333## cccc  #   cccccccdccdccc    cc bbbbbbhbhb",
"fff  ##### 3333... j =========   uuuuuu&&u** zuu** xxffff   #####3333333 ##  ###3333## ccc  # ## ccccccccdcdccccccccc  bbbbbbhhb",
"ff  .#####  >>>.#..  ========= ** uuuuuu&&** zu** fx8ff  =   ##333333333    ###33333## cc  #  ##  cccccccdddcccccccc = bbbhhhhbb",
"   #....... 33>####  =====XX== ** *uuuuuuu%%  u*  xx8f  == c  ###3333333   ####33333##   ### #### ccccccccddcdcccccc =  bbbbhhhb",
" ###.>####  33>###  XX=XXX====  ** uuu&&&&%** u  xxf8  === cc   ###3333  c ###3333333#  #### #### cccccccccdddccccc  XX  gggbbbh",
"####.###  3333>### ==XX========    *uuuuuuu** u fxf8   === cccc  ###333 cc ##3  33333####### 3####  cccddccddccccNc XXX=  gggggg",
"####.#   3>33>3##  ===XX=========       uuu*** fff8f u   = cccNc   #33  cc  #    333  #####  33#### ccccddcdccccNc XXX==X    ggg",
"####   #33>33>33# ====X=XX========   **         ff8  uuy   cccNccc  3  cccp   gg 3     #### 33333### ccccccdccNNc  XX===X  *    ",
"##   3333>33>333 =====X==XXXXX====== ****** **  fff uuuuu   ccdNccc   ccccp  ggg   ggg #### 333333##   cccdcNNcc  XX====  u*****",
"    33333333>3    ====X====X=======  ****** ** fff uuuuuuu  ccdmccccccNcccp ggggg gggg ###  33333333##  ccdcc    XX===== uu****k",
"***  333333    gg ====X====XXX====  *****    * fff u&uuu&uu cccdNcccccmcccp gggggggggg ##  3333333##  u       =XXX=====X uuuuuzz",
"****  3    === gg ====X=====X==    ***** uuu * ff  u&uuu&uu  ccdNcccccmcccp gggggggggg    333333###  uuuuu ##  XX=====X uuuuuuuz",
"*****   ====== gg ==========X== c   *** uuuu *  f uuu&uu&uuu cccmNccccmcccp gggggggggg  6 #333###   zuuuuu ###  X=====X       uz",
"uu   ========  gg ===    ====== ccc   u *uuuu * f uuu&uu&uuu cccdNcccdNccpp ggggggggg  66  #3###  uzuuuuuu #### XX====XXXXXXX uz",
"uu B ======== ggg  == gg  ===   ccddd   **uuu     uuuu&uuuuu  cccdNccdNccpp gggggggg  66O6 #3#   uzuuuuuu  ####  XX=====XXXXX uz",
"u  B ======== gggg == ggg    cccccccdc   *uuuu   uuuuu&uuuuuu cccdNNcdNccpp ggggggg  66688     uuzzuuuuuu ###### XX======XXXX uz",
"u BBB ======  gggg    gg  cccccccccccccc  *uuuu  u&&&uu&uuuuu  cccdNcdNcccp ggg    66668f88  **uzzuuu&uu  ######  X=====XXXXX uu",
" BBZB ======  ggggg  gggg  ccccccccNcddcc *uuuuu uuu&&&&uuuuuu cccdNNdNcccp g     O66f8fff8f  *kuuuu&uuu ######   XX====X  XXX u",
"ZBBBZ ===== == gggg1gggggg  ccddddNcddccc  *uuuu uuuuuuu&uu     ccdccdccccp   pp 66668fffffff  *uuuu&uu  ##       XX====X   XX u",
"BBBBZ ====  == ggbbhggbgggg  ddcNNcddccccc **uuu uuuuuuu&u  cc  cccdcdccccpppppp 666f88fffffff **uu&uuu     uu  gg X====X c    u",
"BBBBZ ===  ==== bbbhbbbgggg  ccNccdccccccc **uuuu uuuuuuu&u ccddddccddcccdccccpp 66f8f8fffffff  **&&uuuuuuuuuu ggg X====X  cc  u",
"BBBBBZ =  ===== bbbhbbgggg  cNNcddcccccccc **uuu u uuuuuuu&  cccccdddccccdccccpp 668fff8ffffff ***&uuuuuuuuuu  ggg  X===XX cdcc ",
"BBBBBZ  ======= bbbhbbggg  cNNcdccdccccccc ***uu =  uuuuu&uu ccccccccdcNNdcccpp  68ffff88ffff  %%%uuuuuuuuuuu ggggg X====X cdccN",
"BBBBBZ ======== bbbbhggg  ccNcddcNdccccccc ***u  ===  uuuuuu  cccccccdccNmcccpp OOOffffffffff %*%*&&&&&&&&uu  ggggb XX===X ccdcN",
"nBBBBZ ======== bbbbggg  cccddcccNdcccc  c ***u =====   uuuu   ccccNNcdccdccppp 6666666fffff  **%uuuuuuuuu&u ggggbb XX===X  ccdc",
"nBBBBZ ======== bbbbgg  ccddcccccNdccc     **u  =======      =  ccccNNdcccdcppp 666666666f   ***&uuuuu&uuuu  ggggVb  X===XX cccd",
"BBBBBB ========  bbgg  dddccccccccdcc  **  **  ==      ========  ccccNNdccdcpp             *****&uuuuu&&uuu ggggVVbb X===XX cccd",
"BZBnBB ========    gg dcccccccccccccc ******* ==  cccc   ==    cccccccccdcdpp  jjjjjjjjj  *****u&uuuuuu&uu gggggVbbb X===XX cccc",
"ZBnBBB ======== ***  ccccccccc   ccc  ****** =    cccccc  =   ccccccddddddcpp jjBjjtjjjjj ****uu&uuuuuuu&u  gggbVbbb X====X cccc",
"BnnBBBB ======= ****          6O cc  ******    cccccccccc = =   cccccccccdpp  jBBBBnnBBBj  ***uu&uuuuuuuuuu gggbVbbb X====X  ccc",
"BnBBBBB ====== ******* 66666666O c  6 *****  ccccccccccNN   ==    cccccccp<p jBBBBnBnnBBjj ***uu&uu  uuuuuu gggVbbbb X====X  ccc",
"nnBBBBB =====  ******* 66666666O6  66 ****  cccNNNcccccNcc  =  ##    ccccpp  jBBBZnBBnBBjjj ***u&uu    uuuu gggVbbbb XX     cccc",
"BBBBBBB ===== ******** 666O6666O6666f ***  ccNNNcccccNNcccc   #######   cpp jBBBBZnBBBnBtjj  0*uuuu XX   uu gggVbbbb XX  ppccccc",
"BBBBBBB ==== ********* 666OOf66O666ff ***      ccccccNcccccp  #########  p  tBBBBZnBBBnBBttj  **uuu XXXX     ggVbbbb XX=  pppppp",
"nBBBBBB ==== ********* 666ff8O6O6Offf ** 66666  NcccNcccccccp ####333###    jBBBBZnBBBBnBBttj  *uuu XX=X g   gbVbbbb XX==  ppppp",
"nBBBBBB  ==  **** **** ffffff888f8fff   666666  NccNccccccccp  ##333333#### jBBBBZnBBBBnBBjtjj    u XX=X ggg gbVbbbb XX===X  ppp",
"nBBBnBBB = c  **   *** ffffffff88ffff  66666O6 Nccccccccccccpp ##3333333### jjBBBBnBBBBnBBB    X    XX== bggggbbbbbb XX===XX   p",
"BnBnnBBB  ccc ** c  ** ff8fffff8fffff 66666fO  Ncccccccccccccp ##33333333##  jBBBBnBBBBBnBB XX XXX  XX==  gggbbbbbbb XX====XXX  ",
"nnBBBBBB  cccc * cc ** fff888ff8fffff 6O66f66 Nccc  cccccc ppp ##333333333## jjBBBBBBBBBnBB XXXXXX  XX=== gggbbbbbb =XX====XXX  ",
"BnBBBBBB cccccc  cc  * fffff88f8fffff 6O66f66 Nc    ccccc   pp ##3333333333# jjBBB  BBBBBnB XX==XXXXX====  gggbbbbb =XX=====XXX ",
"jjnBBBBB ccccccccccc * ffffffff8ff66 66O6Of6  c  6  cccpp #  p ##3333333333## jBB #  BBBBnB XXX=========XX ggggbbbb XXX=====XXXX",
"jjtBBjjB cccdccccccc ** ffff66O f666 66O66f6 c  66  ccpp  ##   ##33333#       BB ####  BBnB  XXXX=======X     gbbb  XXX======XX ",
"jjjtBjjj dccdccccccc  * ff6666  f666 666Of66  666 # ppp  ####  ####     ggggbb      ## #BBn   XXXX======  BBB   bb XXXX======  3",
" jjtjjjj ddcdcccccccc *  66   3 666  666Of66 666  ## p  ###### ##   ggggggbbbbbbbbbb      n #  XXXX====X BBBnBB    XXXXX====X 3l",
"  jttjjjccddcdcddcccc **   3333 666 666OffO6666  3##   ####### #  gggggbbbbbbVVVVVbbbbb #   ###  XXX===X BBBnBBBBB   XXXX=XX  l3",
"u  jtjj cccdcccdcccccc *  >3333 66  66O6f8O6666 33##  #######   ggggggbbbbbbVVbbbbbbbbb ##  ####    =    BBBnnBBBBBB   XXXXX ll>",
"uu  jj cccdddccdcccccc  33>333 66  666Offff666  33## ######   B ggggbbbbhbbbbbbbbhhbbb  ##########    ** BBBnnBnnnBBBB   XX  l3>",
"uu j   dddccdccdccccc > 33>333 6  666Offfff66  33###..#:    BBB ggggbbbbhhhbbbhhhbbbb  ##########  ***u* BBnnBnBBnBBBBB  XX 3333",
"uu  c ccccccdccdcccc 3>333>33    666O86666666 333##..    jjjBBB gggbbVVVbbbhhhbbbbbb  #########  **uuuu* BBnBBnBBBBB   @XXX 3333",
"uuu cccccccccdccccc 33>3>>333   666OOf666666  33##.#  jjjZBBBBB ggbVVVbbbhhbbbbbbbb ###    ###  **uuuuu* BBnBBBnBBBB  B9oX  333 ",
"uuu  cccNNNccddccc 333>3>3333  6666O88O    6 333#.  jBjjZZBBBB  ggbVbbhhhbhbbbbbbb #### cc     ***uuuuu* BBnBZZnBBBBB  r+X     #",
"uuu  cccccccdddcc s333>>3333 j  666fff6 33   333#  jBBBZZBBBBB gbbhhhhbbbhhbbbbb  ##### ccccc   ***uuuu* BBBBBZBnBBBBB  +X #####",
"*uuu   cccccdcccc 433>>3333  jj   666f6 33333     jjBZZBBBBBB  gbbbbbbbbbhbbbbb  ###   cccccccc  ****uu* BBBBBBZnnBBBBB  X ###33",
"*uu **  ccccccNc 53333>>>>> jjjBB  6666  3l3333  jjjjBBBBBBBB  gggbbbbbbbhbbbb  ##   cccccccccdc  ***uu* B   BBZnBnBBBBB X 33333",
"*uu **** cccccNc 3333>3333  ttBBBBB  666 33llll33  jjjBBBBBB gggggggbbbbbbbb   6   ccccccccccdccc ***uu*   * BBBZnnnBBBB   33333",
"**u ***** ccccNc 333>33333 jjnBBBBBB  66 3##333ll3  jjjBBB        ggbbbbbb   666   cccccccccdcdcc **uuu*  u*  BBZCBBBBBBB  33333",
" ** ****  ccccNc 333>>>>3 jjjnBBBBBBB  66 ##3333ll3  jjBB  gggggg         66666666  cddccccdccdcc **uuuu*uu** BBBnBBBBBBBB  333#",
"  * ***  ccccccc 33>3>33  jjBBnBBBBBBB  6  ##3333333  j   ggggggg p 66666O66Off6666  cdddccdccdcc         u** BBBBBBBB    B  3##",
"    **     cccc  3>3333  jjjBBnnBBBBBBB 66   #333333#   gggg11ggg p 66fff8ff888f6666 cccccdcccccc  ***** uuu*  BBBB    ##    ###",
"u  ********      3>333  jjjBBBnBnnBBBBBB 6 #  ####    ## ggg1gggg pp fff88ffff88866  cccddcdcccc  ****** uuuu* BBBB #####3###   ",
"uu *****   ##### >333   jjBBBBnnBnnBBBBB   ###     ####3 ggghbbbb pp ff888ffffffO6  cNNdcccdcccc ******  uuuu*  BBB ###3333#  gg",
"uuu ***  ###### 3333  X jBBBBnBnBBBnnBBBB  ###########3 gggghbbbb ppp fff8fffff66  cNNdccccdcccc **uuu* *uuuu** BB ###3333## ggg",
"uuu  *  ##333## 33   XX jBBBBnBnBBBBBBBBB  ###########  gggbhbbbb ppp ffff8ffff6  cNNddccccdccc  *uuuu*   uuuu* B  ##3333## ggbb",
"&&uu   ##3333##     XXX BBBBBnBBnBBBBBBBB ############ gggbbhbbbb <pp ffff8fff66 ccNdcc   cdccc ***uuu****   uu    ##333##  bbbb",
"uuuu  ##3333..#  #  XXX BBBBBnBBnBBBB   B ###.###3333  gggbbhbbbb <ppa fff8fff66 ccdd   # cccc  ****uu******   u   #3333#  bbbbb",
"uuuuu 333333.####  XXXX  BBBBnBZnBBBB e   ##3>333333  gggbbbhbbb p<cpp  fff8ff6 ccc   #### ccc   ****uuu*******    333### bbbhhh",
"uuuuu 33333>##### XXXX=X BBBBnBBZnBBB w** #33>33333  * ggbbbhbbb p<ccpa  ff8866 c   ###### cc  6  *u**uuuuuuuu  ** 333##  bbbbbb",
"uuuuu 3333>>####  XXX==X BBBBBBBZnBBB *** #3>33333  ** gbbbbbhbb ppdcppa fff866   ####33##    666   u**uuuuuu  *** 3#### bbbbbbh",
"&uuuu  333>333## XXXX==X BBBBBBBBCnBB *** #>>3333  ***  bbbbbhbb ppdccppp ff866  ####33## 6  6OO666  **uuuuu  ***u ####  bbbbbhh",
"&u  uu 3333333## XXX====  B   BBBZnBB *** 3>>333  **u** bbbbbhbb pNdccp<<  ff6    33333## 66 66O6f66  **uuu  ***u* ###  bbVbbhbh",
"&uu      3333##  XXX====X B X  BBZCBB *** 3333   **uuuu  bbbbbbb pNdccc<pp  f  pp 33333## 66666Off666  *u  ****uu* ##  gbVbbhhhb",
"&uu gggg     ## XXXX====X   XX  BBBnB *** 3   ****uuuuu*  bbbbbb pcmcccdppp   ppp 3333### 66f6688ff666 ** ****uuu*    bbVbbhbbbb",
"%&u g11gg1gg    XXX======  XXXX  BBBB ***   *****uuuuuuu*  bbbb  ccNdcddcpppppppp 3333### 6ffff88fff66 u*   **uu***  bbVbhhbbbbb",
"*&u gg11g1gg1gg  XXX=====X XXXX   BBB  **  ********uuuuu** bbbb <ccNdcdcccpp<pppp          ffff8f8fffff **  *uuu**  bbVbhbbbbbb ",
"*%u gg1111gg1ggg  XX======XXXXX **  B  ** *********uuuuuu*   bb <dcNdcccccp<pppcc XXXXXXXX ffff8f8f8fff    *uuuu*  bVVbhhbbbb  #",
"uuu  g1111gg1ggg   XX=====XXXXX ***   * *******  **uuuuuu* *    pddNdcccccdppcccc XXXXXXXX ffff8f8f88ff  **uuuuu  bVbbhbbbb   ##",
"uuuu gggbhhbhbbb 3  X======XXX *****  ** *****   **uuuuuu** ppp cccNdccccdccccccc XXXXX==X  fff8ff8fffff **uuuu  VVbbbb     ####",
"uuuu gggbbhbbbbb 33 XX===  =XX ****** *** **   B  **uuuuuu* ppppcccNcdccdcccccccc XX=====XX fff8ff8fffff **uuu  3       ########",
"uuuu g11hhhhbbbb 33  X=== c    **   ******   BBBB **uuuuuu* pppcccccNdccdcccccccc X=======X  ffffff8ffff **uuu*  ##### #########",
"uuuu  ggbbbbhhbb 333 XX== cc   *  c ******* jBBnB **uuuuuuu* ppcccccNdcdcccccccc  X========X  fffff88fff *******####### ####### ",
"*uuuu ggbbbbbhbbb 33  X== cccc   cc  *****  jBBnB            ccccccccdcccccccccc XX========XX  fffff8fff ****       ### ######  ",
"*uuuu     bbbbhbb 333 X== ccccc  ccc ***** jjBBnBBBBBBBBBBB   ccNccdcdcccccccccN XX==========XX  ffff8ff **   XXXXXX           j",
" uuuu  333   bbbb 333 XX= ccdcccccdc ****  jjBBnBBBBBBBBBBB # cccNccdddcccccccN  X============XX    ff8f    =XXX    jjjjjjjj  jj",
" uuuu  33333    b 333  X= ccddcccdcc ****   jBBnBBBBBBBnnB  #  ccNccccdcccccccc XX======   ====XXXX   ff  ===X  jjjjjjjjjjjjjjjj",
" uuuu   3333333    333 X  cccdcccdcc  **  * BBBnBBBBBnnBBB ###  ccNcccdccccccc  X======= cc  ===XX  p    ===XX jjjjjjjjjBBBBBBBB",
"*uuu  *  333333333>>33   ccccddcddccc *  ** BBBnBBBnnBBBB  ####  cNNccdcccccc     ======  cc   ==  pp =  ===XX  jjjjjjjtnnBBBBBZ",
" uuu ****  33333333>33 pppccdddddcppp    ** jBnnBnnnBBjjj ###### ccNcccccccc  ***       = cccc    p  === ====XX  jjjjjjBBBnnnBnB",
"* uu *****   3333333>3 ppppccccddpppp ** ** jBnnnBBBBjjj ######## ccccccccc  *******      ccccc pp  ======XX=XXX  jjjBBBBZBBnnBn"
};
