/* XPM */
static char *_4c07256dcb14285b03e7eb35e688a28[] = {
/* columns rows colors chars-per-pixel */
"128 128 59 1 ",
"  c #2B1B0E",
". c #3B170D",
"X c #3A321B",
"o c #4D1E11",
"O c #461D1A",
"+ c #4D2213",
"@ c #482C19",
"# c #562216",
"$ c #5A2414",
"% c #5C271F",
"& c #592C19",
"* c #5D2E1A",
"= c #752E1A",
"- c #782F1C",
"; c #77311C",
": c #79301C",
"> c #7C311E",
", c #5B2622",
"< c #5C2722",
"1 c #5D2823",
"2 c #5B3B22",
"3 c #5D3921",
"4 c #672B2B",
"5 c #672D2B",
"6 c #672E2C",
"7 c #6A2D28",
"8 c #68352D",
"9 c #693A2E",
"0 c #773228",
"q c #793329",
"w c #4B4123",
"e c #554B28",
"r c #6B4226",
"t c #734E2D",
"y c #764D2C",
"u c #794D2D",
"i c #7C4C2D",
"p c #6E6134",
"a c #70674A",
"s c #803320",
"d c #82372B",
"f c #893A34",
"g c #823838",
"h c #8B4F3E",
"j c #8A5531",
"k c #905C35",
"l c #A84738",
"z c #A74838",
"x c #926037",
"c c #946339",
"v c #95653A",
"b c #96564C",
"n c #9C5954",
"m c #826048",
"M c #8B694D",
"N c #857A54",
"B c #9C7051",
"V c #B66457",
"C c #A67D59",
/* pixels */
"llllVVVVlllll yyyyyyyyy y yyy y  vyyy   y  ff yyvvvv lllllVbddddllldl  yy  vvvvvvvv jrrjj   y yyvvvvv yyy  ffffffff  ,,,,,,,,,  ",
"lddddlllVll   yyyyyyyyyyy yy yyy   yy f   fff yyyvvv llllllVVVlldldll yy  vvvvvvvtv jjj   yy  yyvvvvy yy  ffffffffff ,,,,,,,,  y",
"lllldddlll yyyyvvvvvvyyyy y yyy jj  y ffffffff yyyyv  lllllllllldldll y  vvvvvvvtvv     yyy  yyvvvvv yy  fffffffffff ,,,,,,,, yy",
"llllllldd  yyyvvvvvyyyyyy y     jrj   ,fffffff yyyyyy llllllllVVddlll    yvvvvttvvv yyyyyy y yyvvvvy y  ffffffffffff ,,,,,,,  yy",
"llllllllll yvvvvvvvyyyyy    f7O jrjjj ,,ffffff     yyy llllllllVldllllll yvtttvvvvvyyyyyy    yyvvvv  y ffff     ffff ,,,,,,,    ",
"lllllllllll yvvvvvyyyy   fff77, jrrjjj  ,fffffffff  yy    lllllVVdllldll 22tvvvvvvvyyyyy  y yyvvvv  y   ,,  ,,,   ff ,,,,,,,,,,,",
"lllllllllll  yvvvvyy   ffff77f jBBrjjjj ,,,fffffff yyy lllllllllVldlddl  yyyy yyyyyyyyv  yy   vvy     ,,   ,,,,,,    ,,,,,,,,,,,",
"l        lll yvvvyy  7ffff7fff jBjrBjjjj ,,ffffff       llllddddlldldll yyyyy   yyyy   yyyyyy       ,,,,,  ,,,,,,,       ,,,,,,,",
"l uuiuyy     v vvy  f7fff7fff, jBjjmrjjjj ,,ffff  ooooo   lllllllldllll yyyyy v      yy  yyyyvyyyy ,,,,,,,,,,,,    vvvvv    ,,,,",
"l yyyyyyyyyvv  vyy ff7f77ffff, jBjjmrjjjj  <,ff  oooo=ooo  llllllldlll  yyyyyv vv  yyyy   yyyyyyy ,,,,,,,,,,,,  vttvvvvvvvv    ,",
"  yyyyyyyyvv   vy  ffff7f777,, jBjjrmjjjjj  ,ff oooo===ooo  llllllldll         vvv   y  v yyyyyy  ,,,,,,,,,,,  vvvvvvtttttvvvy  ",
"vyyyyvvyyvvv p yy ffff777ff,,, jBjjjmjjjjjj 1,  ooo=====oo=o  llllldl  4444444 vvvvv   vv yyyyy  ,,,,,,,,,,,  vvvvtttvvvtvvvyyy ",
"vvvvvvvvvvv  e yy fff7ffff,,,, jBjjjrBjjjjj   oooo===========    lldl 444g44g4 vvvvvv  vvv yyyy ,,,,,,,,,,,, vvvttvvtvvvtyyyvyyy",
"vvvvvvvvvv  pep   ff77fff,,,,  jjjjrjmjjrjjj oooo============ooo      4gggggg4  vvvvvyvvvv vyy  ,,,,,,,,,,,  vtttvvvtvvvtyyyyyyy",
"vvvvvvvvv  ppepp  ff7ffff,,,   jjjjrjrBjrrjj ooo=oo  o==== oooo  gg  4gggggggg4 vvvvvvvvvv  yy ,,,,,,,,,,,  vttvvvvvtvvvtvv   yy",
" vvvvvvvv pppeppp f77fff,,,  # jjjjrjjmjjjjj oo==oo    oo   oo  gggggggggggggg4 vvvvvvvvvvv yy ,,,,,,,,,,  vtvvvvvvtvvvvv   w   ",
" yvvvvvv  pNpepppp 7fff,,,  #oo jjjjjjrjjjjj o===oo vv    v   gggggggggggggg444 vvvvvvvvvvv    ,,,,,,,,,  vvtvvvvvvtvvv   www 4 ",
"  vvvvvv pNNpeeppp  f,,,   oooo  jjjjjjrrjjj ====oo vvvvvvyy g44gggggggg4444444 vvvvvvvvvvyyyy ,,     ,,     vvvvvttv   wwwww 4g",
"y vvvvvv pNpppepppp  ,,  ooo===o  jjjjrjrjjj ====oo vvvvvyyy 4  4ggggggg        vvvvvvvvyyyyy     lll  ,,,,,          wwwwww 44g",
"y vvvvvv pNpppeppppp    ooo======  jjjrrjrjj  ooooo vvvvvyyy 4  44ggggggg  yyyyyvvvvyyyyyyy   llllllll  ,,,,, wwwwwwXwwwwwww 4gg",
"y     vv pNpppeppppp  oooo======  y  jjjjrj yy      vvvvvyyy    44ggggggg4   yvyyyyyyyyy    llllVllllll  ,,, wwwwwweeppppwww 4gg",
"yyyyv vv pppppepppppp  ooo====== yyy  jjjrr yyyy   vvvvvvyyy  ff 44ggg444444  yyyyyyyy  llllllVVldllllll  ,, wwpppppepppwwww 4gg",
"yyyyy vv ppppeeepeeppp  oo=====o yyyy  jjj  yyy  vvvvvvvyyy   ff 4444444gg444  yyyyy   lllllllVlldlllllll , ppppppppepppwww 44gg",
"yyyyy vv ppppepepNeeeep oo=====  yvyyy  jj yyyy  vvvvvvyyy  y ff 44                v    lllldddlddddddlll , ppppppppepppwww 4444",
"yyyy  vv pwwpepeeNNpppp  o===== yyvvyyy  j yvyyy  vvvyyy  vv  fff   33jjBBBBBBBjjj   ==   llllldlVllllllll      ppppeppwww   4  ",
"yyyy vvv pwwpeppepNppppp o====o yyvvvvyy   yvvyyy  yyyy  vyy ffff 3333jjjjjjjjjjjjjj    =  lllldlVllllllll  ggg pppepppwww   4 l",
"yyy  vvy  wwwpppeeNNpppp o====  yy vvvvyy yvvvyyyy     vvyy  ffff 3333jjjjjjjjrrjjjjjj3    lllddlVlll000ll gggg pppeppwww zl   l",
"yy  vvvyy  wwwpppeeNpppp o==;& yy   vvvvyvvvvvvyyyyk  vvvyy nffff @33jjjjrrjjjjrrjjjj33  lllllddlllll0 0ll gggg  ppeppwww ll  ll",
"y  vvvvvyy  wwwpepeppppp o==*  yy v   vvvvvvvvyyyy  vCvvyy  nf7ff @@3jjjjjrrrjjjrjjj33  llllllddlllll0   l ggggg wwXpwww  llllll",
"  vvvvvyyyy  wwpepeppepp o=;  yyy vvv  yyyyyyyyyy  vCCvyyy nff7ff 33@rrjjjjjrjjjjrj33  lllllddlldllll0 g   ggggg wwXwwww lllllll",
"  vvvvvyyyyy  wweppepeep oo  yyyy tCvv            vCCvvyy f7fffff 333jjrrrrrrrjjj333  llllddddlldlll00 gggggg gg wwXwww  0llllll",
"vvvvvvyyyyyyv wwXppepNep o  yyyyy tvCvvvvvvvvvv  vvCvvvy  f7ffff  33jjjjjjrrjjrr@@@  llllddlbllldlll00 ggggg  gg wX      0000%dl",
"v  vvvyyyy     wwpppeNpp   yyyyy vvtvCCvvtvvvv  yvvvvvyy ff7ffff   3jjjjjrrjjj3333  lllldllVbllldll000 gggg   gg wX j     0000%l",
"    yyy    oooo wwppeNp   yyyyyy vvtvvvvvtvvvy yyvvvvyy  ff7ffff o  jjjjjjjjjj3333 lllllllVbllllll000 gggg  l  g ww jjjjj   000d",
"f    y  ooooooo wwppeNp       yy vCttvvvvtvvyy yvtvvvyy fffffff ooo   jjjjjjjj333      lllVdlll ll00   ggg Vll g ww  jjjjjj   00",
"fff    ooooooooo wwpepp  gggg yy vvCtvvvvtvvy  Cvvtvyy f7fffff  ooooo    jjjjjjj333333  lldlll   000 l  g  Vll   w   jjjjjjjj  0",
"7ff o  oooo....o wwpep ggggg  y  vvCvtvvttvyy vCvvt2y  n7fffff ooooooooo         333333 lddlll o  00 ll   lVll     g jrrrjjjjjj ",
"777  oo oooo$=..o wwep ggggg yy vvvvvtvvtvyyy vCvvv2  nf7ffff  ooooo==oo ooooooo    333 ldlll  oo  0 lll  lVdl ggggg jjjrrjjjrjj",
"ffff oo  o==$$o.o wwep ggggg    vvvvvvtvtvyy vCvvvyy nff77ff  oooooo===o ooooo   oo     ddll  oooo 0 llllllVdl  gggg  jjjjrjjrjj",
"nfff ooo  o==$=.oo we gggggg gg vttttttvvvyy vCvvyy  nfff7f  oooooo====o oooo  ooooooo lllll   o     llddlVldll gg    jjjjjrjrjj",
"ffff oooo o==$=.oo wX ggggggggg  vvvvvttvvyy vCvvy  nnfff7  oooooo====== ooo  ooo===oo llll  o   llllllldlldlll    ll jjjjjjrjrj",
"fff  ooooo ====... w ggggggggg   vvvvvvttvyy Cvvyy nnffff   ooooo======= oo  ooo====oo lll  o oo lllllllldldlllllllll  jjjjjjrrj",
"ff  .ooooo  $$$.o..  ggggggggg yy vvvvvvttyy Cvyy fn7ff  g   oo=========    ooo=====oo ll  o  oo  llllllldddllllllll g jjjrrrrjj",
"   o....... ==$oooo  ggggg44gg yy yvvvvvvv22  vy  nn7f  gg l  ooo=======   oooo=====oo   ooo oooo llllllllddldllllll g  jjjjrrrj",
" ooo.$oooo  ==$ooo  44g444gggg  yy vvvtttt2yy v  nnf7  ggg ll   ooo====  l ooo=======o  oooo oooo llllllllldddlllll  44  333jjjr",
"oooo.ooo  ====$ooo gg44gggggggg    yvvvvvvvyy v fnf7   ggg llll  ooo=== ll oo=  =====ooooooo =oooo  lllddllddllllVl 444g  333333",
"oooo.o   =$==$=oo  ggg44ggggggggg       vvvyyy fff7f c   g lllVl   o==  ll  o    ===  ooooo  ==oooo llllddldllllVl 444gg4    333",
"oooo   o==$==$==o gggg4g44gggggggg   yy         ff7  vvk   lllVlll  =  lll0   33 =     oooo =====ooo lllllldllVVl  44ggg4  y    ",
"oo   ====$==$=== ggggg4gg44444gggggg yyyyyy yy  fff vvvvv   lldVlll   llll0  333   333 oooo ======oo   llldlVVll  44gggg  vyyyyy",
"    ========$=    gggg4gggg4ggggggg  yyyyyy yy fff vvvvvvv  lldbllllllVlll0 33333 3333 ooo  ========oo  lldll    44ggggg vvyyyyM",
"yyy  ======    33 gggg4gggg444gggg  yyyyy    y fff vtvvvtvv llldVlllllblll0 3333333333 oo  =======oo  v       g444ggggg4 vvvvvCC",
"yyyy  =    ggg 33 gggg4ggggg4gg    yyyyy vvv y ff  vtvvvtvv  lldVlllllblll0 3333333333    ======ooo  vvvvv oo  44ggggg4 vvvvvvvC",
"yyyyy   gggggg 33 gggggggggg4gg l   yyy vvvv y  f vvvtvvtvvv lllbVllllblll0 3333333333  , o===ooo   Cvvvvv ooo  4ggggg4       vC",
"vv   gggggggg  33 ggg    gggggg lll   v yvvvv y f vvvtvvtvvv llldVllldVll00 333333333  ,,  o=ooo  vCvvvvvv oooo 44gggg4444444 vC",
"vv p gggggggg 333  gg 33  ggg   llddd   yyvvv     vvvvtvvvvv  llldVlldVll00 33333333  ,,O, o=o   vCvvvvvv  oooo  44ggggg44444 vC",
"v  p gggggggg 3333 gg 333    llllllldl   yvvvv   vvvvvtvvvvvv llldVVldVll00 3333333  ,,,77     vvCCvvvvvv oooooo 44gggggg4444 vC",
"v ppp gggggg  3333    33  llllllllllllll  yvvvv  vtttvvtvvvvv  llldVldVlll0 333    ,,,,7f77  yyvCCvvvtvv  oooooo  4ggggg44444 vv",
" ppNp gggggg  33333  3333  llllllllVlddll yvvvvv vvvttttvvvvvv llldVVdVlll0 3     O,,f7fff7f  yMvvvvtvvv oooooo   44gggg4  444 v",
"NpppN ggggg gg 3333@333333  llddddVlddlll  yvvvv vvvvvvvtvv     lldlldllll0   00 ,,,,7fffffff  yvvvvtvv  oo       44gggg4   44 v",
"ppppN gggg  gg 33jjr33j3333  ddlVVlddlllll yyvvv vvvvvvvtv  ll  llldldllll000000 ,,,f77fffffff yyvvtvvv     vv  33 4gggg4 l    v",
"ppppN ggg  gggg jjjrjjj3333  llVlldlllllll yyvvvv vvvvvvvtv llddddllddllldllll00 ,,f7f7fffffff  yyttvvvvvvvvvv 333 4gggg4  ll  v",
"pppppN g  ggggg jjjrjj3333  lVVlddllllllll yyvvv v vvvvvvvt  llllldddlllldllll00 ,,7fff7ffffff yyytvvvvvvvvvv  333  4ggg44 ldll ",
"pppppN  ggggggg jjjrjj333  lVVldlldlllllll yyyvv g  xcvvvtvv lllllllldlVVdlll00  ,7ffff77ffff  222vvvvvvvvvvv 33333 4gggg4 ldllV",
"pppppN gggggggg jjjjr333  llVlddlVdlllllll yyyv  ggg  cvvvvv  llllllldllVblll00 OOOffffffffff 2y2yttttttttvv  3333j 44ggg4 lldlV",
"eppppN gggggggg jjjj333  lllddlllVdllll  l yyyv ggggg   vvvv   llllVVldlldll000 ,,,,,,,fffff  yy2vvvvvvvvvtv 3333jj 44ggg4  lldl",
"eppppN gggggggg jjjj33  llddlllllVdlll     yyv  ggggggg      g  llllVVdllldl000 ,,,,,,,,,f   yyytvvvvvtvvvv  3333Bj  4ggg44 llld",
"pppppp gggggggg  jj33  dddlllllllldll  yy  yy  gg      gggggggg  llllVVdlldl00             yyyyytvvvvvttvvv 3333BBjj 4ggg44 llld",
"pNpepp gggggggg    33 dllllllllllllll yyyyyyy gg  llll   gg    llllllllldld00  wwwwwwwww  yyyyyvtvvvvvvtvv 33333Bjjj 4ggg44 llll",
"Npeppp gggggggg yyy  lllllllll   lll  yyyyyy g    llllll  g   llllllddddddl00 wwpwwXwwwww yyyyvvtvvvvvvvtv  333jBjjj 4gggg4 llll",
"peepppp ggggggg yyyy          ,O ll  yyyyyy    llllllllll g g   llllllllld00  wppppeepppw  yyyvvtvvvvvvvvvv 333jBjjj 4gggg4  lll",
"peppppp gggggg yyyyyyy ,,,,,,,,O l  , yyyyy  llllllllllVV   gg    lllllll0%0 wppppepeeppww yyyvvtvv  vvvvvv 333Bjjjj 4gggg4  lll",
"eeppppp ggggg  yyyyyyy ,,,,,,,,O,  ,, yyyy  lllVVVlllllVll  g  oo    llll00  wpppNeppeppwww yyyvtvv    vvvv 333Bjjjj 44     llll",
"ppppppp ggggg yyyyyyyy ,,,O,,,,O,,,,f yyy  llVVVlllllVVllll   ooooooo   l00 wppppNepppepXww  yyvvvv 44   vv 333Bjjjj 44  00lllll",
"ppppppp gggg yyyyyyyyy ,,,OOf,,O,,,ff yyy      llllllVlllll0  ooooooooo  0  XppppNepppeppXXw  yyvvv 4444     33Bjjjj 44g  000000",
"epppppp gggg yyyyyyyyy ,,,ff7O,O,Offf yy ,,,,,  VlllVlllllll0 oooo===ooo    wppppNeppppeppXXw  yvvv 44g4 3   3jBjjjj 44gg  00000",
"epppppp  gg  yyyy yyyy ffffff777f7fff   ,,,,,,  VllVllllllll0  oo======oooo wppppNeppppeppwXww    v 44g4 333 3jBjjjj 44ggg4  000",
"epppeppp g l  yy   yyy ffffffff77ffff  ,,,,,O, Vllllllllllll00 oo=======ooo wwppppeppppeppp    4    44gg j3333jjjjjj 44ggg44   0",
"pepeeppp  lll yy l  yy ff7fffff7fffff ,,,,,fO  Vlllllllllllll0 oo========oo  wppppepppppepp 44 444  44gg  333jjjjjjj 44gggg444  ",
"eepppppp  llll y ll yy fff777ff7fffff ,O,,f,, Vlll  llllll 000 oo=========oo wwpppppppppepp 444444  44ggg 333jjjjjj g44gggg444  ",
"pepppppp llllll  ll  y fffff77f7fffff ,O,,f,, Vl    lllll   00 oo==========o wwppp  pppppep 44gg44444gggg  333jjjjj g44ggggg444 ",
"wweppppp lllllllllll y ffffffff7ff,, ,,O,Of,  l  ,  lll00 o  0 oo==========oo wpp o  ppppep 444ggggggggg44 3333jjjj 444ggggg4444",
"wwXppwwp llldlllllll yy ffff,,O f,,, ,,O,,f, l  ,,  ll00  oo   oo=====o       pp oooo  ppep  4444ggggggg4     3jjj  444gggggg44 ",
"wwwXpwww dlldlllllll  y ff,,,,  f,,, ,,,Of,,  ,,, o 000  oooo  oooo     3333jj      oo oppe   4444gggggg  ppp   jj 4444gggggg  =",
" wwXwwww ddldllllllll y  ,,   = ,,,  ,,,Of,, ,,,  oo 0  oooooo oo   333333jjjjjjjjjj      e o  4444gggg4 pppepp    44444gggg4 =h",
"  wXXwwwllddldlddllll yy   ==== ,,, ,,,OffO,,,,  =oo   ooooooo o  33333jjjjjjBBBBBjjjjj o   ooo  444ggg4 pppeppppp   4444g44  h=",
"v  wXww llldllldllllll y  $==== ,,  ,,O,f7O,,,, ==oo  ooooooo   333333jjjjjjBBjjjjjjjjj oo  oooo    g    pppeepppppp   44444 hh$",
"vv  ww llldddlldllllll  ==$=== ,,  ,,,Offff,,,  ==oo oooooo   p 3333jjjjrjjjjjjjjrrjjj  oooooooooo    yy pppeepeeepppp   44  h=$",
"vv w   dddlldlldlllll $ ==$=== ,  ,,,Offfff,,  ==ooo..o+    ppp 3333jjjjrrrjjjrrrjjjj  oooooooooo  yyyvy ppeepeppeppppp  44 ====",
"vv  l lllllldlldllll =$===$==    ,,,O7,,,,,,, ===oo..    wwwppp 333jjBBBjjjrrrjjjjjj  ooooooooo  yyvvvvy ppeppeppppp   6444 ====",
"vvv llllllllldlllll ==$=$$===   ,,,OOf,,,,,,  ==oo.o  wwwNppppp 33jBBBjjjrrjjjjjjjj ooo    ooo  yyvvvvvy ppepppepppp  p854  === ",
"vvv  lllVVVllddlll -==$=$====  ,,,,O77O    , ===o.  wpwwNNpppp  33jBjjrrrjrjjjjjjj oooo ll     yyyvvvvvy ppepNNeppppp  954     o",
"vvv  llllllldddll s===$$==== w  ,,,fff, ==   ===o  wpppNNppppp 3jjrrrrjjjrrjjjjj  ooooo lllll   yyyvvvvy pppppNpeppppp  54 ooooo",
"yvvv   llllldllll :==$$====  ww   ,,,f, =====     wwpNNpppppp  3jjjjjjjjjrjjjjj  ooo   llllllll  yyyyvvy ppppppNeeppppp  4 ooo==",
"yvv yy  llllllVl >====$$$$$ wwwpp  ,,,,  =h====  wwwwpppppppp  333jjjjjjjrjjjj  oo   llllllllldl  yyyvvy p   ppNepeppppp 4 =====",
"yvv yyyy lllllVl ====$====  XXppppp  ,,, ==hhhh==  wwwpppppp 3333333jjjjjjjj   ,   lllllllllldlll yyyvvy   y pppNeeepppp   =====",
"yyv yyyyy llllVl ===$===== wwepppppp  ,, =oo===hh=  wwwppp        33jjjjjj   ,,,   llllllllldldll yyvvvy  vy  ppNappppppp  =====",
" yy yyyy  llllVl ===$$$$= wwweppppppp  ,, oo====hh=  wwpp  333333         ,,,,,,,,  lddlllldlldll yyvvvvyvvyy pppepppppppp  ===o",
"  y yyy  lllllll ==$=$==  wwppeppppppp  ,  oo=======  w   3333333 0 ,,,,,O,,Off,,,,  ldddlldlldll         vyy pppppppp    p  =oo",
"    yy     llll  =$====  wwwppeeppppppp ,,   o======o   3333@@333 0 ,,fff7ff777f,,,, llllldllllll  yyyyy vvvy  pppp    oo    ooo",
"v  yyyyyyyy      =$===  wwwpppepeepppppp , o  oooo    oo 333@3333 00 fff77ffff777,,  lllddldllll  yyyyyy vvvvy pppp ooooo=ooo   ",
"vv yyyyy   ooooo $===   wwppppeepeeppppp   ooo     oooo= 333rjjjj 00 ff777ffffffO,  lVVdllldllll yyyyyy  vvvvy  ppp ooo====o  33",
"vvv yyy  oooooo ====  4 wppppepepppeepppp  ooooooooooo= 3333rjjjj 000 fff7fffff,,  lVVdlllldllll yyvvvy yvvvvyy pp ooo====oo 333",
"vvv  y  oo===oo ==   44 wppppepeppppppppp  ooooooooooo  333jrjjjj 000 ffff7ffff,  lVVddlllldlll  yvvvvy   vvvvy p  oo====oo 33jj",
"ttvv   oo====oo     444 pppppeppepppppppp oooooooooooo 333jjrjjjj %00 ffff7fff,, llVdll   ldlll yyyvvvyyyy   vv    oo===oo  jjjj",
"vvvv  oo====..o  o  444 pppppeppepppp   p ooo.ooo====  333jjrjjjj %00q fff7fff,, lldd   o llll  yyyyvvyyyyyy   v   o====o  jjjjj",
"vvvvv ======.oooo  4444  ppppepNepppp y   oo=$======  333jjjrjjj 0%l00  fff7ff, lll   oooo lll   yyyyvvvyyyyyyy    ===ooo jjjrrr",
"vvvvv =====$ooooo 4444g4 ppppeppNeppp yyy o==$=====  y 33jjjrjjj 0%ll0q  ff77,, l   oooooo ll  ,  yvyyvvvvvvvv  yy ===oo  jjjjjj",
"vvvvv ====$$oooo  444gg4 pppppppNeppp yyy o=$=====  yy 3jjjjjrjj 00dl00q fff7,,   oooo==oo    ,,,   vyyvvvvvv  yyy =oooo jjjjjjr",
"tvvvv  ===$===oo 4444gg4 ppppppppaepp yyy o$$====  yyy  jjjjjrjj 00dll000 ff7,,  oooo==oo ,  ,OO,,,  yyvvvvv  yyyv oooo  jjjjjrr",
"tv  vv =======oo 444gggg  p   pppNepp yyy =$$===  yyvyy jjjjjrjj 0Vdll0%%  ff,    =====oo ,, ,,O,f,,  yyvvv  yyyvy ooo  jjBjjrjr",
"tvv      ====oo  444gggg4 p 4  ppNapp yyy ====   yyvvvv  jjjjjjj 0Vdlll%00  f  00 =====oo ,,,,,Off,,,  yv  yyyyvvy oo  3jBjjrrrj",
"tvv 3333     oo 4444gggg4   44  pppep yyy =   yyyyvvvvvy  jjjjjj 0lbllld000   000 ====ooo ,,f,,77ff,,, yy yyyyvvvy    jjBjjrjjjj",
"2tv 3@@33@33    444gggggg  4444  pppp yyy   yyyyyvvvvvvvy  jjjj  llVdlddl00000000 ====ooo ,ffff77fff,, vy   yyvvyyy  jjBjrrjjjjj",
"ytv 33@@3@33@33  444ggggg4 4444   ppp  yy  yyyyyyyyvvvvvyy jjjj %llVdldlll00%0000          ffff7f7fffff yy  yvvvyy  jjBjrjjjjjj ",
"y2v 33@@@@33@333  44gggggg44444 yy  p  yy yyyyyyyyyvvvvvvy   jj %dlVdlllll0%000ll 44444444 ffff7f7f7fff    yvvvvy  jBBjrrjjjj  o",
"vvv  3@@@@33@333   44ggggg44444 yyy   y yyyyyyy  yyvvvvvvy y    0ddVdllllld00llll 44444444 ffff7f7f77ff  yyvvvvv  jBjjrjjjj   oo",
"vvvv 333jrrjrjjj =  4gggggg444 yyyyy  yy yyyyy   yyvvvvvvyy 000 lllVdlllldlllllll 44444gg4  fff7ff7fffff yyvvvv  BBjjjj     oooo",
"vvvv 333jjrjjjjj == 44ggg  g44 yyyyyy yyy yy   p  yyvvvvvvy 0000lllVldlldllllllll 44ggggg44 fff7ff7fffff yyvvv  =       oooooooo",
"vvvv 3@@rrrrjjjj ==  4ggg l    yy   yyyyyy   pppp yyvvvvvvy 000lllllVdlldllllllll 4ggggggg4  ffffff7ffff yyvvvy  ooooo ooooooooo",
"vvvv  33jjjjrrjj === 44gg ll   y  l yyyyyyy wppep yyvvvvvvvy 00lllllVdldllllllll  4gggggggg4  fffff77fff yyyyyyyooooooo ooooooo ",
"yvvvv 33jjjjjrjjj ==  4gg llll   ll  yyyyy  wppep            lllllllldllllllllll 44gggggggg44  fffff7fff yyyy       ooo oooooo  ",
"yvvvv     jjjjrjj === 4gg lllll  lll yyyyy wwppeppppppppppp   llVlldldlllllllllV 44gggggggggg44  ffff7ff yy   444444           w",
" vvvv  ===   jjjj === 44g lldllllldl yyyy  wwppeppppppppppp o lllVlldddlllllllV  4gggggggggggg44    ff7f    g444    wwwwwwww  ww",
" vvvv  =====    j ===  4g llddllldll yyyy   wppepppppppeep  o  llVlllldllllllll 44gggggg   gggg4444   ff  ggg4  wwwwwwwwwwwwwwww",
" vvvv   =======    === 4  llldllldll  yy  y pppepppppeeppp ooo  llVllldlllllll  4ggggggg ll  ggg44  0    ggg44 wwwwwwwwwpppppppp",
"yvvv  y  =========$$==   llllddlddlll y  yy pppepppeepppp  oooo  lVVlldllllll     gggggg  ll   gg  00 g  ggg44  wwwwwwwXeepppppN",
" vvv yyyy  ========$== 000lldddddl000    yy wpeepeeeppwww oooooo llVllllllll  yyy       g llll    0  ggg gggg44  wwwwwwpppeeepep",
"y vv yyyyy   =======$= 0000lllldd0000 yy yy wpeeeppppwww oooooooo lllllllll  yyyyyyy      lllll 00  gggggg44g444  wwwppppNppeepe"
};
