/* XPM */
static char *d209c810d40f4755bf47106b5ef05407[] = {
/* columns rows colors chars-per-pixel */
"128 128 54 1 ",
"  c #2B1B0E",
". c #281B16",
"X c #3A1C1C",
"o c #3B2413",
"O c #34231C",
"+ c #36241C",
"@ c #2B3019",
"# c #3E2920",
"$ c #383E21",
"% c #462D12",
"& c #4E251A",
"* c #412B1D",
"= c #4E281B",
"- c #4D2F19",
"; c #4F2F1E",
": c #4E3019",
"> c #5A3A17",
", c #52331A",
"< c #54331B",
"1 c #5A341F",
"2 c #5B3A18",
"3 c #4B2424",
"4 c #492F21",
"5 c #562A2A",
"6 c #4F3420",
"7 c #50352A",
"8 c #54372B",
"9 c #563828",
"0 c #623122",
"q c #6F3636",
"w c #3F4726",
"e c #69431B",
"r c #525C31",
"t c #6D4223",
"y c #744327",
"u c #754328",
"i c #724428",
"p c #764428",
"a c #6F533F",
"s c #714B4B",
"d c #6B554B",
"f c #5D6448",
"g c #6D7651",
"h c #885723",
"j c #895232",
"k c #8E5533",
"l c #935734",
"z c #935834",
"x c #945834",
"c c #865656",
"v c #846046",
"b c #8B604A",
"n c #9B7146",
"m c #A57254",
/* pixels */
"ttttvvvvttttt uuuuuuuuu u uuu u  xuuu   u  hh uuxxxx tttttva<<<<ttt<t  uu  xxxxxxxx q55qq   u uuxxxxx uuu  hhhhhhhh  >>>>>>>>>  ",
"t<<<<tttvtt   uuuuuuuuuuu uu uuu   uu h   hhh uuuxxx ttttttvvvtt<t<tt uu  xxxxxxxix qqq   uu  uuxxxxu uu  hhhhhhhhhh >>>>>>>>  u",
"tttt<<<ttt uuuuxxxxxxuuuu u uuu qq  u hhhhhhhh uuuux  tttttttttt<t<tt u  xxxxxxxixx     uuu  uuxxxxx uu  hhhhhhhhhhh >>>>>>>> uu",
"ttttttt<<  uuuxxxxxuuuuuu u     q5q   >hhhhhhh puuuuu ttttttttvv<<ttt    uxxxxiixxx uuuuuu u uuxxxxu u  hhhhhhhhhhhh >>>>>>>  uu",
"tttttttttt uxxxxxxxuuuuu    he% q5qqq >>hhhhhh     uuu ttttttttvt<tttttt uxiiixxxxxuuuuuu    uuxxxx  u hhhh     hhhh >>>>>>>    ",
"ttttttttttt uxxxxxuuuu   hhhee> q55qqq  >hhhhhhhhh  uu    tttttvv<ttt<tt 11ixxxxxxxuuuuu  u uuxxxx  u   >>  >>>   hh >>>>>>>>>>>",
"ttttttttttt  uxxxxuu   hhhheeh qcc5qqqq >>>hhhhhhh uuu tttttttttvt<t<<t  uuuu uuuuuuuux  uu   xxu     >>   >>>>>>    >>>>>>>>>>>",
"t        ttt uxxxuu  ehhhhehhh qcq5cqqqq >>hhhhhh       tttt<<<<tt<t<tt uuuuu   uuuu   uuuuuu       >>>>>  >>>>>>>       >>>>>>>",
"t uyyuuu     x xxu  hehhhehhh> qcqqs5qqqq >>hhhh  OOOOO   tttttttt<tttt uuuuu x      uu  uuuuxuuuu >>>>>>>>>>>>    xxxxx    >>>>",
"t uuuuuuuuuxx  xuu hheheehhhh> qcqqs5qqqq  >>hh  OOOO7OOO  ttttttt<ttt  uuuuux xx  uuuu   uuuuuuu >>>>>>>>>>>>  xiixxxxxxxx    >",
"  uuuuuuuuxx   xu  hhhheheee>> qcqq5sqqqqq  >hh OOOO777OOO  ttttttt<tt         xxx   u  x uuuuuu  >>>>>>>>>>>  xxxxxxiiiiixxxu  ",
"xuuuuxxuuxxx r uu hhhheeehh>>> qcqqqsqqqqqq 2>  OOO77777OO7O  ttttt<t  &&&&&&& xxxxx   xx uuuuu  >>>>>>>>>>>  xxxxiiixxxixxxuuu ",
"xxxxxxxxxxx  w uu hhhehhhh>>>> qcqqq5cqqqqq   OOOO77777777777    tt<t &&&0&&0& xxxxxx  xxx uuuu >>>>>>>>>>>> xxxiixxixxxiuuuxuuu",
"xxxxxxxxxx  rwr   hheehhh>>>>  qqqq5qsqq5qqq OOOO777777777777OOO      &000000&  xxxxxuxxxx xuu  >>>>>>>>>>>  xiiixxxixxxiuuuuuuu",
"xxxxxxxxx  rrwrr  hhehhhh>>>   qqqq5q5cq55qq OOO7OO  O7777 OOOO  00  &00000000& xxxxxxxxxx  uu >>>>>>>>>>>  xiixxxxxixxxixx   uu",
" xxxxxxxx rrrwrrr heehhh>>>  * qqqq5qqsqqqqq OO77OO    OO   OO  00000000000000& xxxxxxxxxxx uu >>>>>>>>>>  xixxxxxxixxxxx   $   ",
" uxxxxxx  rgrwrrrr ehhh>>>  *+O qqqqqq5qqqqq O777OO xx    x   00000000000000&&& xxxxxxxxxxx    >>>>>>>>>  xxixxxxxxixxx   $$$ & ",
"  xxxxxx rggrwwrrr  h>>>   +OOO  qqqqqq55qqq 7777OO xxxxxxuu 0&&00000000&&&&&&& xxxxxxxxxxuuuu >>     >>     xxxxxiix   $$$$$ &0",
"u xxxxxx rgrrrwrrrr  >>  OOO777O  qqqq5q5qqq 7777OO xxxxxuuu &  &0000000        xxxxxxxxuuuuu     ttt  >>>>>          $$$$$$ &&0",
"u xxxxxx rgrrrwrrrrr    OOO777777  qqq55q5qq  OOOOO xxxxxuuu &  &&0000000  uuuuuxxxxuuuuuuu   tttttttt  >>>>> $$$$$$@$$$$$$$ &00",
"u     xx rgrrrwrrrrr  OOOO777777  u  qqqq5q uu      xxxxxuuu    &&0000000&   uxuuuuuuuuu    ttttvtttttt  >>> $$$$$$wwrrrr$$$ &00",
"uuuux xx rrrrrwrrrrrr  OOO777777 uuu  qqq55 uuuu   xxxxxxuuu  hh &&000&&&&&&  uuuuuuuu  ttttttvvt<tttttt  >> $$rrrrrwrrr$$$$ &00",
"uuuuu xx rrrrwwwrwwrrr  OO77777O uuuu  qqq  uuu  xxxxxxxuuu   hh &&&&&&&00&&&  uuuuu   tttttttvtt<ttttttt > rrrrrrrrwrrr$$$ &&00",
"uuuuu xx rrrrwrwrgwwwwr OO77777  uxuuu  qq uuuu  xxxxxxuuu  u hh &&                x    tttt<<<t<<<<<<ttt > rrrrrrrrwrrr$$$ &&&&",
"uuuu  xx r$$rwrwwggrrrr  O77777 uuxxuuu  q uxuuu  xxxuuu  xx  hhh   33qqcccccccqqq   77   ttttt<tvtttttttt      rrrrwrr$$$   &  ",
"uuuu xxx r$$rwrrwrgrrrrr O7777O uuxxxxuu   uxxuuu  uuuu  xuu hhhh 3333qqqqqqqqqqqqqq    7  tttt<tvtttttttt  000 rrrwrrr$$$   & t",
"uuu  xxu  $$$rrrwwggrrrr O7777  uu xxxxuu uxxxuuuu     xxuu  hhhh 3333qqqqqqqq55qqqqqq3    ttt<<tvttt---tt 0000 rrrwrr$$$ tt   t",
"uu  xxxuu  $$$rrrwwgrrrr O7774 uu   xxxxuxxxxxxuuuuj  xxxuu nhhhh X33qqqq55qqqq55qqqq33  ttttt<<ttttt- -tt 0000  rrwrr$$$ tt  tt",
"u  xxxxxuu  $$$rwrwrrrrr O774  uu x   xxxxxxxxuuuu  xmxxuu  nhehh XX3qqqqq555qqq5qqq33  tttttt<<ttttt-   t 00000 $$@r$$$  tttttt",
"  xxxxxuuuu  $$rwrwrrwrr O78  uuu xxx  uuuuuuuuuu  xmmxuuu nhhehh 33X55qqqqq5qqqq5q33  ttttt<<tt<tttt- 0   00000 $$@$$$$ ttttttt",
"  xxxxxuuuuu  $$wrrwrwwr OO  uuuu imxx            xmmxxuu hehhhhh 333qq5555555qqq333  tttt<<<<tt<ttt-- 000000 00 $$@$$$  -tttttt",
"xxxxxxuuuuuux $$@rrwrgwr O  uuuuu ixmxxxxxxxxxx  xxmxxxu  hehhhh  33qqqqqq55qq55XXX  tttt<<tattt<ttt-- 00000  00 $@      ----o<t",
"x  xxxuuuu     $$rrrwgrr   uuuuu xxixmmxxixxxx  uxxxxxup hhehhhh   3qqqqq55qqq3333  tttt<ttvattt<tt--- 0000   00 $@ q     ----ot",
"    uuu    OOOO $$rrwgr   uuuuuu xxixxxxxixxxu uuxxxxuu  hhehhhh O  qqqqqqqqqq3333 tttttttvatttttt--- 0000  t  0 $$ qqqqq   ---<",
"h    u  OOOOOOO $$rrwgr       uu xmiixxxxixxuu uxixxxup hhhhhhh OOO   qqqqqqqq333      tttv<ttt tt--   000 vtt 0 $$  qqqqqq   --",
"hhh    OOOOOOOOO $$rwrr  0000 uu xxmixxxxixxu  mxxixuu hehhhhh  OOOOO    qqqqqqq333333  tt<ttt   --- t  0  vtt   $   qqqqqqqq  -",
"ehh O  OOOO....O $$rwr 00000  u  xxmxixxiixuu xmxxi1u  nehhhhh OOOOOOOOO         333333 t<<ttt O  -- tt   tvtt     0 q555qqqqqq ",
"eee  OO OOOO#7..O $$wr 00000 uu xxxxxixxixuuu xmxxx1  nhehhhh  OOOOO77OO OOOOOOO    333 t<ttt  OO  - ttt  tv<t 00000 qqq55qqq5qq",
"hhhh OO  O77##O.O $$wr 00000    xxxxxxixixuu xmxxxuu nhheehh  OOOOOO777O OOOOO   OO     <<tt  OOOO - ttttttv<t  0000  qqqq5qq5qq",
"nhhh OOO  O77#7.OO $w 000000 00 xiiiiiixxxuu xmxxuu  nhhheh  OOOOOO7777O OOOO  OOOOOOO ttttt   O     tt<<tvt<tt 00    qqqqq5q5qq",
"hhhh OOOO O77#7.OO $@ 000000000  xxxxxiixxuu xmxxu  nnhhhe  OOOOOO777777 OOO  OOO777OO tttt  O   ttttttt<tt<ttt    tt qqqqqq5q5q",
"hhh  OOOOO 7777... $ 000000000   xxxxxxiixuu mxxuu nnhhhh   OOOOO7777777 OO  OOO7777OO ttt  O OO tttttttt<t<ttttttttt  qqqqqq55q",
"hh  .OOOOO  ###.O..  000000000 uu xxxxxxiiuu mxuu hnehh  0   OO777777777    OOO77777OO tt  O  OO  ttttttt<<<tttttttt 0 qqq5555qq",
"   O....... 77#OOOO  00000&&00 uu uxxxxxxx11  xu  nneh  00 t  OOO7777777   OOOO77777OO   OOO OOOO tttttttt<<t<tttttt 0  qqqq555q",
" OOO.#OOOO  77#OOO  &&0&&&0000  uu xxxiiii1uu x  nnhe  000 tt   OOO7777  t OOO7777777O  OOOO OOOO ttttttttt<<<ttttt  &&  333qqq5",
"OOOO.OOO  7777#OOO 00&&00000000    uxxxxxxxuu x hnhe   000 tttt  OOO777 tt OO7  77777OOOOOOO 7OOOO  ttt<<tt<<ttttvt &&&0  333333",
"OOOO.O   7#77#7OO  000&&000000000       xxxuuu hhheh l   0 tttvt   O77  tt  O    777  OOOOO  77OOOO tttt<<t<ttttvt &&&00&    333",
"OOOO   O77#77#77O 0000&0&&00000000   uu         hhe  xlj   tttvttt  7  ttt-   33 7     OOOO 77777OOO tttttt<ttvvt  &&000&  u    ",
"OO   7777#77#777 00000&00&&&&&000000 uuuuuu uu  hhh xxxxx   tt<vttt   tttt-  333   333 OOOO 777777OO   ttt<tvvtt  &&0000  xuuuuu",
"    77777777#7    0000&0000&0000000  uuuuuu uu hhh xxxxxxx  tt<attttttvttt- 33333 3333 OOO  77777777OO  tt<tt    &&00000 xxuuuub",
"uuu  777777    33 0000&0000&&&0000  uuuuu    u hhh xixxxixx ttt<vtttttattt- 3333333333 OO  7777777OO  x       0&&&00000& xxxxxmm",
"uuuu  7    000 33 0000&00000&00    uuuuu xxx u hh  xixxxixx  tt<vtttttattt- 3333333333    777777OOO  xxxxx OO  &&00000& xxxxxxxm",
"uuuuu   000000 33 0000000000&00 t   uuu xxxx u  h xxxixxixxx tttavttttattt- 3333333333  > O777OOO   mxxxxx OOO  &00000&       xm",
"xx   00000000  33 000    000000 ttt   x uxxxx u h xxxixxixxx ttt<vttt<vtt-- 333333333  >>  O7OOO  xmxxxxxx OOOO &&0000&&&&&&& xm",
"xx r 00000000 333  00 33  000   tt<<<   uuxxx     xxxxixxxxx  ttt<vtt<vtt-- 33333333  >>%> O7O   xmxxxxxx  OOOO  &&00000&&&&& xm",
"x  r 00000000 3333 00 333    ttttttt<t   uxxxx   xxxxxixxxxxx ttt<vvt<vtt-- 3333333  >>>ee     xxmmxxxxxx OOOOOO &&000000&&&& xm",
"x rrr 000000  3333    33  tttttttttttttt  uxxxx  xiiixxixxxxx  ttt<vt<vttt- 333    >>>>ehee  uuxmmxxxixx  OOOOOO  &00000&&&&& xx",
" rrgr 000000  33333  3333  ttttttttvt<<tt uxxxxx xxxiiiixxxxxx ttt<vv<vttt- 3     %>>hehhheh  ubxxxxixxx OOOOOO   &&0000&  &&& x",
"grrrg 00000 00 3333X333333  tt<<<<vt<<ttt  uxxxx xxxxxxxixx     tt<tt<tttt-   -- >>>>ehhhhhhh  uxxxxixx  OO       &&0000&   && x",
"rrrrg 0000  00 33qq533q3333  <<tvvt<<ttttt uuxxx xxxxxxxix  tt  ttt<t<tttt------ >>>heehhhhhhh uuxxixxx     xx  33 &0000& t    x",
"rrrrg 000  0000 qqq5qqq3333  ttvtt<ttttttt uuxxxx xxxxxxxix tt<<<<tt<<ttt<tttt-- >>hehehhhhhhh  uuiixxxxxxxxxx 333 &0000&  tt  x",
"rrrrrg 0  00000 qqq5qq3333  tvvt<<tttttttt uuxxx x xxxxxxxi  ttttt<<<tttt<tttt-- >>ehhhehhhhhh uuuixxxxxxxxxx  333  &000&& t<tt ",
"rrrrrg  0000000 qqq5qq333  tvvt<tt<ttttttt uuuxx 0  klxxxixx tttttttt<tvv<ttt--  >ehhhheehhhh  111xxxxxxxxxxx 33333 &0000& t<ttv",
"rrrrrg 00000000 qqqq5333  ttvt<<tv<ttttttt uuux  000  lzxxxx  ttttttt<ttvattt-- %%%hhhhhhhhhh 1u1uiiiiiiiixx  3333q &&000& tt<tv",
"wrrrrg 00000000 qqqq333  ttt<<tttv<tttt  t uuux 00000   xxxx   ttttvvt<tt<tt--- >>>>>>>hhhhh  uu1xxxxxxxxxix 3333qq &&000&  tt<t",
"wrrrrg 00000000 qqqq33  tt<<tttttv<ttt     uux  0000000      0  ttttvv<ttt<t--- >>>>>>>>>h   uuuixxxxxixxxx  3333cq  &000&& ttt<",
"rrrrrr 00000000  qq33  <<<tttttttt<tt  uu  uu  00      00000000  ttttvv<tt<t--             uuuuuixxxxxiixxx 3333ccqq &000&& ttt<",
"rgrwrr 00000000    33 <tttttttttttttt uuuuuuu 00  tttt   00    ttttttttt<t<--  $$$$$$$$$  uuuuuxixxxxxxixx 33333cqqq &000&& tttt",
"grwrrr 00000000 uuu  ttttttttt   ttt  uuuuuu 0    tttttt  0   tttttt<<<<<<t-- $$r$$@$$$$$ uuuuxxixxxxxxxix  333qcqqq &0000& tttt",
"rwwrrrr 0000000 uuuu          >% tt  uuuuuu    tttttttttt 0 0   ttttttttt<--  $rrrrwwrrr$  uuuxxixxxxxxxxxx 333qcqqq &0000&  ttt",
"rwrrrrr 000000 uuuuuuu >>>>>>>>% t  > uuuuu  ttttttttttvv   00    ttttttt-o- $rrrrwrwwrr$$ uuuxxixx  xxxxxx 333cqqqq &0000&  ttt",
"wwrrrrr 00000  uuuuuuu >>>>>>>>%>  >> uuuu  tttvvvtttttvtt  0  OO    tttt--  $rrrgwrrwrr$$$ uuuxixx    xxxx 333cqqqq &&     tttt",
"rrrrrrr 00000 uuuuuuuu >>>%>>>>%>>>>h uuu  ttvvvtttttvvtttt   OOOOOOO   t-- $rrrrgwrrrwr@$$  puxxxx &&   xx 333cqqqq &&  --ttttt",
"rrrrrrr 0000 uuuuuuuuu >>>%%h>>%>>>hh uuu      ttttttvttttt-  OOOOOOOOO  -  @rrrrgwrrrwrr@@$  uuxxx &&&&     33cqqqq &&0  ------",
"wrrrrrr 0000 uuuuuuuuu >>>hhe%>%>%hhh uu >>>>>  vtttvttttttt- OOOO777OOO    $rrrrgwrrrrwrr@@$  uxxx &&0& 3   3qcqqqq &&00  -----",
"wrrrrrr  00  uuuu uuuu hhhhhheeehehhh   >>>>>>  vttvtttttttt-  OO777777OOOO $rrrrgwrrrrwrr$@$$    x &&0& 333 3qcqqqq &&000&  ---",
"wrrrwrrr 0 t  uu   uuu hhhhhhhheehhhh  >>>>>%> vtttttttttttt-- OO7777777OOO $$rrrrwrrrrwrrr    &    &&00 q3333qqqqqq &&000&&   -",
"rwrwwrrr  ttt uu t  uu hhehhhhhehhhhh >>>>>h%  vttttttttttttt- OO77777777OO  $rrrrwrrrrrwrr && &&&  &&00  333qqqqqqq &&0000&&&  ",
"wwrrrrrr  tttt u tt uu hhheeehhehhhhh >%>>h>> vttt  tttttt --- OO777777777OO $$rrrrrrrrrwrr &&&&&&  &&000 333qqqqqq 0&&0000&&&  ",
"rwrrrrrr tttttt  tt  u hhhhheehehhhhh >%>>h>> vt    ttttt   -- OO7777777777O $$rrr  rrrrrwr &&00&&&&&0000  333qqqqq 0&&00000&&& ",
"$$wrrrrr ttttttttttt u hhhhhhhhehh>> >>%>%h>  t  >  ttt-- O  - OO7777777777OO $rr O  rrrrwr &&&000000000&& 3333qqqq &&&00000&&&&",
"$$@rr$$r ttt<ttttttt uu hhhh>>% h>>> >>%>>h> t  >>  tt--  OO   OO77777O       rr OOOO  rrwr  &&&&0000000&     3qqq  &&&000000&& ",
"$$$@r$$$ <tt<ttttttt  u hh>>>>  h>>> >>>%h>>  >>> O ---  OOOO  OOOO     3333qq      OO Orrw   &&&&000000  rrr   qq &&&&000000  7",
" $$@$$$$ <<t<tttttttt u  >>   7 >>>  >>>%h>> >>>  OO -  OOOOOO OO   333333qqqqqqqqqq      w O  &&&&0000& rrrwrr    &&&&&0000& 7d",
"  $@@$$$tt<<t<t<<tttt uu   7777 >>> >>>%hh%>>>>  7OO   OOOOOOO O  33333qqqqqqcccccqqqqq O   OOO  &&&000& rrrwrrrrr   &&&&0&&  d7",
"x  $@$$ ttt<ttt<tttttt u  #7777 >>  >>%>he%>>>> 77OO  OOOOOOO   333333qqqqqqccqqqqqqqqq OO  OOOO    0    rrrwwrrrrrr   &&&&& dd#",
"xx  $$ ttt<<<tt<tttttt  77#777 >>  >>>%hhhh>>>  77OO OOOOOO   r 3333qqqq5qqqqqqqq55qqq  OOOOOOOOOO    uu rrrwwrwwwrrrr   &&  d7#",
"xx $   <<<tt<tt<ttttt # 77#777 >  >>>%hhhhh>>  77OOO..O+    rrr 3333qqqq555qqq555qqqq  OOOOOOOOOO  uuuxu rrwwrwrrwrrrrr  && 7777",
"xx  t tttttt<tt<tttt 7#777#77    >>>%e>>>>>>> 777OO..    $$$rrr 333qqcccqqq555qqqqqq  OOOOOOOOO  uuxxxxu rrwrrwrrrrr   =&&& 7777",
"xxx ttttttttt<ttttt 77#7##777   >>>%%h>>>>>>  77OO.O  $$$grrrrr 33qcccqqq55qqqqqqqq OOO    OOO  uuxxxxxu rrwrrrwrrrr  r;&&  777 ",
"xxx  tttvvvtt<<ttt 777#7#7777  >>>>%ee%    > 777O.  $r$$ggrrrr  33qcqq555q5qqqqqqq OOOO tt     uuuxxxxxu rrwrggwrrrrr  6&&     O",
"xxx  ttttttt<<<tt 9777##7777 $  >>>hhh> 77   777O  $rrrggrrrrr 3qq5555qqq55qqqqq  OOOOO ttttt   uuuxxxxu rrrrrgrwrrrrr  && OOOOO",
"uxxx   ttttt<tttt 777##7777  $$   >>>h> 77777     $$rggrrrrrr  3qqqqqqqqq5qqqqq  OOO   tttttttt  uuuuxxu rrrrrrgwwrrrrr  & OOO77",
"uxx uu  ttttttvt 87777##### $$$rr  >>>>  7d7777  $$$$rrrrrrrr  333qqqqqqq5qqqq  OO   ttttttttt<t  uuuxxu r   rrgwrwrrrrr & 77777",
"uxx uuuu tttttvt 7777#7777  @@rrrrr  >>> 77dddd77  $$$rrrrrr 3333333qqqqqqqq   >   tttttttttt<ttt uuuxxu   u rrrgwwwrrrr   77777",
"uux uuuuu ttttvt 777#77777 $$wrrrrrr  >> 7OO777dd7  $$$rrr        33qqqqqq   >>>   ttttttttt<t<tt uuxxxu  xu  rrgfrrrrrrr  77777",
" uu uuuu  ttttvt 777####7 $$$wrrrrrrr  >> OO7777dd7  $$rr  333333         >>>>>>>>  t<<tttt<tt<tt uuxxxxuxxuu rrrwrrrrrrrr  777O",
"  u uuu  ttttttt 77#7#77  $$rrwrrrrrrr  >  OO7777777  $   3333333 - >>>>>%>>%hh>>>>  t<<<tt<tt<tt         xuu rrrrrrrr    r  7OO",
"    uu     tttt  7#7777  $$$rrwwrrrrrrr >>   O777777O   3333XX333 - >>hhhehheeeh>>>> ttttt<tttttt  uuuuu xxxu  rrrr    OO    OOO",
"x  uuuuuuuu      7#777  $$$rrrwrwwrrrrrr > O  OOOO    OO 333X3333 -- hhheehhhheee>>  ttt<<t<tttt  uuuuuu xxxxu rrrr OOOOO7OOO   ",
"xx uuuuu   OOOOO #777   $$rrrrwwrwwrrrrr   OOO     OOOO7 3335qqqq -- hheeehhhhhh%>  tvv<ttt<tttt uuuuuu  xxxxu  rrr OOO7777O  33",
"xxx uuu  +OOOOO 7777  & $rrrrwrwrrrwwrrrr  OOOOOOOOOOO7 33335qqqq --- hhhehhhhh>>  tvv<tttt<tttt uuxxxu uxxxxuu rr OOO7777OO 333",
"xxx  u  OO777OO 77   && $rrrrwrwrrrrrrrrr  OOOOOOOOOOO  333q5qqqq --- hhhhehhhh>  tvv<<tttt<ttt  uxxxxu   xxxxu r  OO7777OO 33qq",
"iixx   OO7777OO     &&& rrrrrwrrwrrrrrrrr OOOOOOOOOOOO 333qq5qqqq o-- hhhhehhh>> ttv<tt   t<ttt uuuxxxuuuu   xx    OO777OO  qqqq",
"xxxx  OO7777..O  O  &&& rrrrrwrrwrrrr   r OOO.OOO7777  333qq5qqqq o--, hhhehhh>> tt<<   O tttt  uuuuxxuuuuuu   x   O7777O  qqqqq",
"xxxxx 777777.OOOO  &&&&  rrrrwrgwrrrr i   OO7#777777  333qqq5qqq -ot-:  hhhehh> ttt   OOOO ttt   uuuuxxxuuuuuuu    777OOO qqq555",
"xxxxx 77777#OOOOO &&&&0& rrrrwrrgwrrr iuu O77#77777  u 33qqq5qqq -ott-,  hhee>> t   OOOOOO tt  >  uxuuxxxxxxxx  uu 777OO  qqqqqq",
"xxxxx 7777##OOOO  &&&00& rrrrrrrgwrrr uuu O7#77777  uu 3qqqqq5qq --<t--, hhhe>>   OOOO77OO    >>>   xuuxxxxxx  uuu 7OOOO qqqqqq5",
"ixxxx  777#777OO &&&&00& rrrrrrrrfwrr uuu O##7777  uuu  qqqqq5qq --<tt--- hhe>>  OOOO77OO >  >%%>>>  uuxxxxx  uuux OOOO  qqqqq55",
"ix  xx 7777777OO &&&0000  r   rrrgwrr uuu 7##777  uuxuu qqqqq5qq -v<tt-oo  hh>    77777OO >> >>%>h>>  uuxxx  uuuxu OOO  qqcqq5q5",
"ixx      7777OO  &&&0000& r &  rrgfrr uuu 7777   uuxxxx  qqqqqqq -v<ttto--  h  -- 77777OO >>>>>%hh>>>  ux  uuuuxxu OO  3qcqq555q",
"ixx 3333     OO &&&&0000&   &&  rrrwr uuu 7   uuuuxxxxxu  qqqqqq -tattt<---   --- 7777OOO >>h>>eehh>>> uu uuuuxxxu    qqcqq5qqqq",
"1ix 3XX33X33    &&&000000  &&&&  rrrr uuu   uuuuuxxxxxxxu  qqqq  ttv<t<<t-------- 7777OOO >hhhheehhh>> xu   uuxxuuu  qqcq55qqqqq",
"uix 33XX3X33X33  &&&00000& &&&&   rrr  uu  uuuuuuuuxxxxxuu qqqq ottv<t<ttt--o----          hhhhehehhhhh uu  uxxxuu  qqcq5qqqqqq ",
"u1x 33XXXX33X333  &&000000&&&&& uu  r  uu uuuuuuuuuxxxxxxu   qq o<tv<ttttt-o---tt &&&&&&&& hhhhehehehhh    uxxxxu  qccq55qqqq  O",
"xxx  3XXXX33X333   &&00000&&&&& uuu   u uuuuuuu  uuxxxxxxu u    -<<v<ttttt<--tttt &&&&&&&& hhhheheheehh  uuxxxxx  qcqq5qqqq   OO",
"xxxx 333q55q5qqq 7  &000000&&& uuuuu  uu uuuuu   uuxxxxxxuu --- tttv<tttt<ttttttt &&&&&00&  hhhehhehhhhh uuxxxx  ccqqqq     OOOO",
"xxxx 333qq5qqqqq 77 &&000  0&& uuuuuu uuu uu   r  uuxxxxxxu ----tttvt<tt<tttttttt &&00000&& hhhehhehhhhh uuxxx  7       OOOOOOOO",
"xxxx 3XX5555qqqq 77  &000 t    uu   uuuuuu   rrrr uuxxxxxxu ---tttttv<tt<tttttttt &0000000&  hhhhhhehhhh uuxxxu  OOOOO OOOOOOOOO",
"xxxx  33qqqq55qq 777 &&00 tt   u  t uuuuuuu $rrwr uuxxxxxxxu --tttttv<t<tttttttt  &00000000&  hhhhheehhh uuuuuuuOOOOOOO OOOOOOO ",
"uxxxx 33qqqqq5qqq 77  &00 tttt   tt  uuuuu  $rrwr            tttttttt<tttttttttt &&00000000&&  hhhhhehhh uuuu       OOO OOOOOO  ",
"uxxxx     qqqq5qq 777 &00 ttttt  ttt uuuuu $$rrwrrrrrrrrrrr   ttvtt<t<tttttttttv &&0000000000&&  hhhhehh uu   &&&&&&           $",
" xxxx  777   qqqq 777 &&0 tt<ttttt<t uuuu  $$rrwrrrrrrrrrrr O tttvtt<<<tttttttv  &000000000000&&    hheh    0&&&    $$$$$$$$  $$",
" xxxx  77777    q 777  &0 tt<<ttt<tt uuuu   $rrwrrrrrrrwwr  O  ttvtttt<tttttttt &&000000   0000&&&&   hh  000&  $$$$$$$$$$$$$$$$",
" xxxx   7777777    777 &  ttt<ttt<tt  uu  u rrrwrrrrrwwrrr OOO  ttvttt<ttttttt  &0000000 tt  000&&  -    000&& $$$$$$$$$rrrrrrrr",
"uxxx  u  777777777##77   tttt<<t<<ttt u  uu rrrwrrrwwrrrr  OOOO  tvvtt<tttttt     000000  tt   00  -- 0  000&&  $$$$$$$@wwrrrrrg",
" xxx uuuu  77777777#77 ---tt<<<<<t---    uu $rwwrwwwrr$$$ OOOOOO ttvtttttttt  uuu       0 tttt    -  000 0000&&  $$$$$$rrrwwwrwr",
"u xx uuuuu   7777777#7 ----tttt<<---- uu uu $rwwwrrrr$$$ OOOOOOOO ttttttttt  uuuuuuu      ttttt --  000000&&0&&&  $$$rrrrgrrwwrw"
};
